<svg xmlns="http://www.w3.org/2000/svg" viewBox="0 0 1920 620"><defs><style>.cls-1{fill:#f45e3b;}.cls-2{fill:#f2452f;}.cls-3{fill:#ea3815;}.cls-4{fill:#207700;}.cls-5{fill:#529109;}.cls-6{fill:#fff;opacity:0.6;}.cls-7{fill:#1f7fa0;}.cls-8{fill:none;}</style></defs><g id="Layer_2" data-name="Layer 2"><g id="apple_falling"><path class="cls-1" d="M871.21,351.37a10.59,10.59,0,0,1-1.41,14.79,10.31,10.31,0,0,1-14.62-1.42,10.61,10.61,0,0,1,1.4-14.8A10.32,10.32,0,0,1,871.21,351.37Z"/><path class="cls-2" d="M856.93,349.69a10.3,10.3,0,0,1,9.78,3.66,10.58,10.58,0,0,1-1.4,14.79l-.34.26a10.29,10.29,0,0,0,4.83-2.24,10.59,10.59,0,0,0,1.41-14.79A10.29,10.29,0,0,0,856.93,349.69Z"/><path class="cls-3" d="M863.36,347.55a11.25,11.25,0,0,1,5.14,3.55,11.49,11.49,0,0,1-1.52,16,11,11,0,0,1-1.84,1.24,10.3,10.3,0,0,0,4.66-2.21,10.59,10.59,0,0,0,1.41-14.79A10.3,10.3,0,0,0,863.36,347.55Z"/><path class="cls-4" d="M856.62,350.29a8.23,8.23,0,0,1-2-6.16l.65.2a7.77,7.77,0,0,0,1.59,5.75Z"/><polygon class="cls-5" points="853.55 351.7 856.64 350.28 856.21 349.6 853.36 349.09 853.55 351.7"/><path class="cls-6" d="M857.36,356c-.22,1-.84,1.7-1.39,1.58s-.83-1-.62-2,.84-1.7,1.39-1.57S857.57,355,857.36,356Z"/><path class="cls-7" d="M858.26,334.26a.66.66,0,0,1-.66-.67V323.27a.66.66,0,0,1,.66-.67.67.67,0,0,1,.67.67v10.32A.67.67,0,0,1,858.26,334.26Z"/><path class="cls-7" d="M863.82,341.27a.67.67,0,0,1-.67-.66V330a.67.67,0,0,1,.67-.67.66.66,0,0,1,.66.67v10.66A.66.66,0,0,1,863.82,341.27Z"/><path class="cls-7" d="M863.82,325.92a.66.66,0,0,1-.67-.66v-6a.67.67,0,0,1,.67-.66.66.66,0,0,1,.66.66v6A.65.65,0,0,1,863.82,325.92Z"/><path class="cls-7" d="M863.82,311.21a.67.67,0,0,1-.67-.67v-3.68a.66.66,0,0,1,.67-.66.65.65,0,0,1,.66.66v3.68A.66.66,0,0,1,863.82,311.21Z"/><path class="cls-7" d="M869.19,334.14a.67.67,0,0,1-.67-.66V327.6a.67.67,0,1,1,1.34,0v5.88A.67.67,0,0,1,869.19,334.14Z"/><path class="cls-7" d="M869.19,309.15a.67.67,0,0,1-.67-.67v-9.16a.67.67,0,1,1,1.34,0v9.16A.67.67,0,0,1,869.19,309.15Z"/><path class="cls-7" d="M869.19,323a.67.67,0,0,1-.67-.67v-3.81a.67.67,0,1,1,1.34,0v3.81A.67.67,0,0,1,869.19,323Z"/><path class="cls-7" d="M858.26,302.68a.65.65,0,0,1-.66-.66v-6.63a.66.66,0,0,1,.66-.67.67.67,0,0,1,.67.67V302A.66.66,0,0,1,858.26,302.68Z"/><path class="cls-7" d="M858.26,315.05a.66.66,0,0,1-.66-.67v-3.27a.65.65,0,0,1,.66-.66.66.66,0,0,1,.67.66v3.27A.67.67,0,0,1,858.26,315.05Z"/></g><g id="Layer_7" data-name="Layer 7"><rect class="cls-8" width="1920" height="620"/></g></g></svg>