<svg xmlns="http://www.w3.org/2000/svg" xmlns:xlink="http://www.w3.org/1999/xlink" viewBox="0 0 1920 620"><defs><style>.cls-1{fill:#e6e6e6;}.cls-2{fill:#ccc;}.cls-3{fill:#994d45;}.cls-4{fill:#66322e;}.cls-5{fill:url(#무제_그라디언트_13);}.cls-6{fill:url(#무제_그라디언트_37);}.cls-7{fill:url(#무제_그라디언트_37-2);}.cls-8{fill:url(#무제_그라디언트_37-3);}.cls-9{fill:url(#무제_그라디언트_37-4);}.cls-10{fill:#263238;}.cls-11{fill:#101416;}.cls-12{fill:#455a64;}.cls-13{fill:#e1e1e1;}.cls-14{fill:url(#무제_그라디언트_12);}.cls-15{fill:#f4d1be;}.cls-16{fill:#eb996e;}.cls-17{fill:#603813;}.cls-18{fill:#ffbe9d;}.cls-19{fill:#e58961;}.cls-20{fill:#42210b;}.cls-21{fill:#fff;}.cls-22{fill:#bc3d27;}.cls-23{fill:#e5d7be;}.cls-24{opacity:0.3;}.cls-25{fill:#b3b3b3;}.cls-26{opacity:0.09;}.cls-27{fill:url(#linear-gradient);}.cls-28,.cls-29,.cls-30,.cls-31{opacity:0.2;}.cls-28{fill:url(#linear-gradient-2);}.cls-29{fill:url(#linear-gradient-3);}.cls-30{fill:url(#linear-gradient-4);}.cls-32,.cls-35{fill:none;}.cls-32{stroke:#eb996e;stroke-miterlimit:10;stroke-width:0.38px;}.cls-33{fill:#eac3b2;}.cls-34{fill:url(#무제_그라디언트_8);}</style><linearGradient id="무제_그라디언트_13" x1="947.67" y1="495.68" x2="961.68" y2="495.68" gradientUnits="userSpaceOnUse"><stop offset="0" stop-color="#f2f2f2"/><stop offset="1" stop-color="#e1e1e1"/></linearGradient><linearGradient id="무제_그라디언트_37" x1="949.59" y1="496.43" x2="962.73" y2="497.26" gradientUnits="userSpaceOnUse"><stop offset="0" stop-color="#e6e6e6"/><stop offset="1" stop-color="#d2d2d2"/></linearGradient><linearGradient id="무제_그라디언트_37-2" x1="949.67" y1="496.52" x2="962.72" y2="497.35" xlink:href="#무제_그라디언트_37"/><linearGradient id="무제_그라디언트_37-3" x1="949.71" y1="496.59" x2="962.71" y2="497.42" xlink:href="#무제_그라디언트_37"/><linearGradient id="무제_그라디언트_37-4" x1="949.39" y1="496.36" x2="962.76" y2="497.21" xlink:href="#무제_그라디언트_37"/><linearGradient id="무제_그라디언트_12" x1="937.95" y1="331.61" x2="951.09" y2="331.61" gradientUnits="userSpaceOnUse"><stop offset="0.02" stop-color="#f2f2f2"/><stop offset="1" stop-color="#e1e1e1"/></linearGradient><linearGradient id="linear-gradient" x1="953.09" y1="357.36" x2="959.56" y2="359.86" gradientUnits="userSpaceOnUse"><stop offset="0.01" stop-color="#fafafa"/><stop offset="0.48" stop-color="#f7f7f7"/><stop offset="0.77" stop-color="#efefef"/><stop offset="1" stop-color="#e1e1e1"/></linearGradient><linearGradient id="linear-gradient-2" x1="956.07" y1="350.41" x2="951.94" y2="365.77" gradientUnits="userSpaceOnUse"><stop offset="0.01" stop-color="#e6e6e6"/><stop offset="0.39" stop-color="#dedede"/><stop offset="0.96" stop-color="#cacaca"/><stop offset="1" stop-color="#c8c8c8"/></linearGradient><linearGradient id="linear-gradient-3" x1="957.36" y1="351.2" x2="954.37" y2="366.01" xlink:href="#linear-gradient-2"/><linearGradient id="linear-gradient-4" x1="956.43" y1="358.87" x2="959.44" y2="358.87" xlink:href="#linear-gradient-2"/><linearGradient id="무제_그라디언트_8" x1="965.16" y1="329.93" x2="979.94" y2="329.93" gradientTransform="matrix(0.97, -0.01, -0.01, 1, 33.1, 9.9)" gradientUnits="userSpaceOnUse"><stop offset="0.41" stop-color="#f2f2f2"/><stop offset="0.68" stop-color="#e8e8e8"/><stop offset="1" stop-color="#e1e1e1"/></linearGradient></defs><g id="Layer_2" data-name="Layer 2"><g id="newton"><g id="freepik--Character--inject-3"><polygon class="cls-1" points="937.8 458.41 956.63 519 947.4 522.8 925.04 464.36 937.8 458.41"/><polygon class="cls-2" points="952.08 517.87 952 517.91 935.73 470.39 935.87 470.35 952.08 517.87"/><polygon class="cls-2" points="950.6 518.64 950.51 518.68 933.34 471.61 933.48 471.56 950.6 518.64"/><polygon class="cls-2" points="949.1 519.43 949.01 519.47 930.82 472.71 930.97 472.67 949.1 519.43"/><polygon class="cls-2" points="953.56 517.09 953.48 517.13 937.99 469.21 938.13 469.16 953.56 517.09"/><path class="cls-3" d="M956.75,517.77l2.09,7.23-21.38,5.38a1.07,1.07,0,0,1-1-1.84,86.55,86.55,0,0,1,9.47-7l.5-1A12.7,12.7,0,0,0,956.75,517.77Z"/><path class="cls-4" d="M936.16,529.55a1.06,1.06,0,0,0,1.3.83L958.84,525l-.5-1.74Z"/><path class="cls-4" d="M939,526.44s6.5-5,6.77-7.08l.76.24s1.46,1.89-1.4,3.55Z"/><polygon class="cls-5" points="961.68 463.82 958.61 527.26 948.94 527.53 947.67 464.94 961.68 463.82"/><polygon class="cls-6" points="954.51 521.77 954.4 521.76 956.2 471.82 956.35 471.83 954.51 521.77"/><polygon class="cls-7" points="952.42 521.77 952.3 521.76 953.51 471.68 953.66 471.69 952.42 521.77"/><polygon class="cls-8" points="950.32 521.77 950.21 521.76 950.76 471.52 950.91 471.53 950.32 521.77"/><polygon class="cls-9" points="956.61 521.77 956.49 521.76 958.89 472.01 959.04 472.02 956.61 521.77"/><path class="cls-3" d="M959.06,524.6l.34,7.32-21.46.11a1,1,0,0,1-.49-2A83.6,83.6,0,0,1,948,525.68l.7-.84A12.33,12.33,0,0,0,959.06,524.6Z"/><path class="cls-4" d="M936.91,530.94a1,1,0,0,0,1,1.09l21.46-.11-.08-1.76Z"/><path class="cls-4" d="M940.29,528.66s7.28-3.16,8-5.12l.66.41s1,2.12-2.13,3Z"/><path class="cls-10" d="M945.65,399.37l7.41.12-4.44,39.78L940,459.11l.57,2.58a3,3,0,0,1-1.41,3.25l-10.72,6.3a2.68,2.68,0,0,1-3.81-1.26l-1-2.3c-3.64-5.92-3.26-13.54-1.37-17.61l18.37-50.65Z"/><polygon class="cls-11" points="946.95 419.18 939.98 459.11 945.59 446.63 946.95 419.18"/><path class="cls-10" d="M970.88,429.25,963,459.58v7.16a2.12,2.12,0,0,1-2.28,2L948,467.65a3.07,3.07,0,0,1-2.8-3.17l.18-5.67,2.85-58.94,20-.82,1.67,7.41S972.28,413.42,970.88,429.25Z"/><polygon class="cls-10" points="927.29 471.55 928.45 474.16 940.84 467.73 939.82 464.25 927.29 471.55"/><polygon class="cls-10" points="947.31 467.32 947.54 471.39 961.33 472.03 961.74 468.14 947.31 467.32"/><path class="cls-12" d="M947.35,402.53c-.1,1.25-.22,3-.31,5s-.14,3.74-.14,5a18.17,18.17,0,0,1-.07,2.09,1.76,1.76,0,0,1-.07-.56c0-.36-.07-.88-.07-1.53,0-1.29,0-3.07.07-5s.24-3.75.38-5c.08-.64.15-1.16.21-1.51a2.14,2.14,0,0,1,.11-.56C947.46,401.12,947.42,401.83,947.35,402.53Z"/><path class="cls-12" d="M959.89,402.6c0,.16.05.31.08.47a5.77,5.77,0,0,0,6.81,4.52,9.47,9.47,0,0,0,1.88-.64,1.67,1.67,0,0,1-.44.31,5.39,5.39,0,0,1-1.4.53,6,6,0,0,1-2.19.08,5.6,5.6,0,0,1-4.28-3.11,6,6,0,0,1-.63-2.14,5.44,5.44,0,0,1,0-1.51,1.86,1.86,0,0,1,.15-.56A10,10,0,0,0,959.89,402.6Z"/><path class="cls-12" d="M933,460.62a3.47,3.47,0,0,0,2.74.41,5.23,5.23,0,0,0,2.26-1.74,7.22,7.22,0,0,1,.8-.94,4.28,4.28,0,0,1-.64,1.07,4.9,4.9,0,0,1-2.34,1.88,2.92,2.92,0,0,1-1.68.05,4.52,4.52,0,0,1-1.25-.56,3.47,3.47,0,0,1-1-.78A11.49,11.49,0,0,1,933,460.62Z"/><path class="cls-12" d="M937.56,460.87a12.9,12.9,0,0,1,1.74-2.22,14.73,14.73,0,0,1-1.51,2.38,13.65,13.65,0,0,1-1.72,2.21A12.94,12.94,0,0,1,937.56,460.87Z"/><path class="cls-12" d="M939.38,405.09a5.34,5.34,0,0,0,3.19-3.56c.16-.62.17-1,.22-1a2.42,2.42,0,0,1,0,1.07,4.86,4.86,0,0,1-1.17,2.3,4.79,4.79,0,0,1-2.15,1.4,2.25,2.25,0,0,1-1.06.13A9.42,9.42,0,0,1,939.38,405.09Z"/><path class="cls-13" d="M952.43,315.12a2.93,2.93,0,0,0-4-1,3,3,0,0,0-1.26,1.51,5.1,5.1,0,0,1-.51,1.29c-.75,1-2.59.71-3.2,1.82s.83,2.58.48,3.87c-.29,1-1.62,1.5-1.92,2.52-.4,1.36,1.24,2.7.86,4.06-.34,1.17-2,1.6-2.25,2.79s1.33,2.38,1.3,3.73c0,1.72-2.67,2.66-2.43,4.36.13.94,1.14,1.57,1.3,2.51.31,1.76-2.42,3-2.09,4.74.15.82.93,1.35,1.61,1.85s1.38,1.22,1.25,2.05-1.11,1.33-1.63,2c-.81,1.09.2,3,1.46,3.54l5.57-4s-1.26-.06-.1-1.19.35-1.12.28-2a1.22,1.22,0,0,1,.52,1.55,2.22,2.22,0,0,0,.21,2.25l7.89-3.52.87-7.45Z"/><path class="cls-14" d="M941.43,349.81a1.69,1.69,0,0,1-.5,0,3.16,3.16,0,0,1-1.38-.41,3,3,0,0,1-1.43-1.72,3.42,3.42,0,0,1-.15-1.42,4.55,4.55,0,0,1,.54-1.51c.25-.5.57-1,.81-1.53a3.18,3.18,0,0,0,.31-1.79,5.36,5.36,0,0,0-1-1.72,1.79,1.79,0,0,1-.34-1,1.23,1.23,0,0,1,.59-1,7.23,7.23,0,0,1,1-.55,1.91,1.91,0,0,0,.82-.69,1.35,1.35,0,0,0,.08-1.06,3.54,3.54,0,0,0-.51-1c-.23-.32-.5-.64-.72-1a2.71,2.71,0,0,1-.46-1.17,1.69,1.69,0,0,1,.39-1.23,5.69,5.69,0,0,1,1-.86,6.63,6.63,0,0,0,1-.78,1.57,1.57,0,0,0,.47-1,2.51,2.51,0,0,0-.33-1.13c-.18-.35-.4-.7-.58-1.06a2.28,2.28,0,0,1-.27-1.2,1.85,1.85,0,0,1,.19-.59,2.35,2.35,0,0,1,.36-.47c.55-.56,1.25-.94,1.55-1.59a1.75,1.75,0,0,0,.12-1,4.41,4.41,0,0,0-.26-1,4.75,4.75,0,0,1-.38-2,1.54,1.54,0,0,1,.44-.9,1.78,1.78,0,0,1,.83-.48c.6-.18,1.18-.2,1.73-.33a2,2,0,0,0,1.3-.78c.28-.41.43-.87.69-1.24a2.94,2.94,0,0,1,3.36-1l.34.17.11.07a2.81,2.81,0,0,0-.46-.2,2.9,2.9,0,0,0-1.4-.13,2.8,2.8,0,0,0-1.86,1.12c-.25.35-.4.81-.68,1.24a2.12,2.12,0,0,1-1.35.86c-.55.14-1.14.17-1.71.34a1.69,1.69,0,0,0-.76.43,1.31,1.31,0,0,0-.38.81,4.44,4.44,0,0,0,.38,1.93,4.54,4.54,0,0,1,.27,1,1.93,1.93,0,0,1-.13,1.11c-.34.72-1.06,1.1-1.58,1.64a2.38,2.38,0,0,0-.34.43,1.57,1.57,0,0,0-.16.52,2,2,0,0,0,.26,1.09c.17.35.38.7.58,1.06a2.73,2.73,0,0,1,.35,1.21,1.83,1.83,0,0,1-.52,1.18,7.08,7.08,0,0,1-1,.81,5.1,5.1,0,0,0-.93.8,1.56,1.56,0,0,0-.36,1.09,2.49,2.49,0,0,0,.44,1.09c.21.34.47.65.7,1a3.7,3.7,0,0,1,.54,1.09,1.49,1.49,0,0,1-.09,1.19,2,2,0,0,1-.9.77,8.24,8.24,0,0,0-1,.53,1.09,1.09,0,0,0-.51.83,1.57,1.57,0,0,0,.31.93,5.32,5.32,0,0,1,1,1.79,3.15,3.15,0,0,1-.32,1.88c-.25.56-.58,1.05-.83,1.53a4.29,4.29,0,0,0-.54,1.46,3.18,3.18,0,0,0,.13,1.37,3.06,3.06,0,0,0,1.37,1.73,3.52,3.52,0,0,0,1.34.43C941.25,349.82,941.43,349.8,941.43,349.81Z"/><path class="cls-1" d="M968,337.4c3.86-1.74,2.19-7.17,2.67-10.58,1,.18,2.08-1.23.93-1.75a2.81,2.81,0,0,0,1-.81,2.93,2.93,0,0,0-.51-4.09c2.43-1,1.22-4.95-1.37-4.31.48-2.2-3.31-2.69-4.31-1.22-.29-1.87-2.7-1.8-4-.95-.17-2.76-4.89-5.21-6.34-2.26-1.41-2.71-7.93-1.58-6.71,2-3.33-1.21-6.61,3.42-3.33,5.53-2.09,1.56-1,4.38.79,5.66-.55,2-.57,4.43,1.14,6"/><path class="cls-2" d="M968.52,346.52s-13.39.12-15.31,2.36l-.05,1.83,15.94.08Z"/><path class="cls-15" d="M968.38,347.72l-.79-19.65c.29-6.14-3-11.42-9.06-11.54a11,11,0,0,0-11,10.53c-.1,8.71-2.47,19.82,5.9,20.6,0,2.4.17,7.32.23,9.75l3.9,5.17,5.58-6.92Z"/><path class="cls-16" d="M953.5,349.18c5.82.3,7.45-4,7.45-4a13.39,13.39,0,0,1-7.5,2.47Z"/><path class="cls-17" d="M951.09,332c0,1.38-1.66,1.31-1.66,0S951.08,330.64,951.09,332Z"/><path class="cls-17" d="M951.89,329.51a4.58,4.58,0,0,0-3.28.05C948.83,328.4,951.59,328.39,951.89,329.51Z"/><path class="cls-17" d="M959.43,331.85a.84.84,0,1,1-1.67,0A.84.84,0,1,1,959.43,331.85Z"/><path class="cls-17" d="M960.28,329.51a4.55,4.55,0,0,0-3.27,0C957.25,328.38,960,328.39,960.28,329.51Z"/><path class="cls-18" d="M967.3,338.22c4.92,1.72,5.66-7.76,0-5.77C967.3,332.45,967.29,338.11,967.3,338.22Z"/><path class="cls-16" d="M969.29,333.5c-.63-.14-.6,1-.43.39,1.68-1,1.36,4-.36,2.8C970.05,338.22,971.12,333.82,969.29,333.5Z"/><path class="cls-17" d="M954.07,329.94,951.72,337a.66.66,0,0,0,.54.86l2.8.34-2.41-.83a.38.38,0,0,1-.24-.44Z"/><path class="cls-19" d="M953.72,340.42a.85.85,0,0,0-.53,1.09,2.53,2.53,0,0,0,.63,1,2,2,0,0,0,.45.28.86.86,0,0,0,.55,0,.7.7,0,0,0,.48-.45,1.38,1.38,0,0,0,0-1.39,1.48,1.48,0,0,0-1.55-.51"/><path class="cls-20" d="M953.66,340.45a.18.18,0,0,0,.09.1,2.48,2.48,0,0,1,.27,0l.33.12a1.67,1.67,0,0,1,.56.46,1.29,1.29,0,0,1,.35.87,1.68,1.68,0,0,0-.07.44s0,0,0,0,0,0,.07,0a1.29,1.29,0,0,0,.36-.85,1.48,1.48,0,0,0-.68-1.21,1.72,1.72,0,0,0-1.16-.13A.22.22,0,0,0,953.66,340.45Z"/><path class="cls-21" d="M940.51,399l2.1-8.92a68.4,68.4,0,0,0,0-12.32c-1-9.23-2.31-20.83-2.33-20.8,1.87-5.3,12.9-6.2,12.9-6.2l2.3,2.93a3.85,3.85,0,0,0,5.18.81l5.52-3.73,3.67,1.72a16.83,16.83,0,0,1,2.18,1.25c2.36,1.6,8.17,5.33,9.23,9.48,1.44,6.91-3,19.2-3,19.2l-1.35-1.06a18.33,18.33,0,0,0-2.1-1.41l-4.44,22.16S944.74,400.5,940.51,399Z"/><path class="cls-21" d="M968.52,346.52s-.4,3.08-10.15,4.06c0,0-4.27.06-5.16-1.7l-.05,1.83s.6,3.15,5.27,3.15c0,0,8.66-.29,10.67-3.07Z"/><path class="cls-2" d="M967.64,349.41a17.74,17.74,0,0,1-9.92,3,13.72,13.72,0,0,0,10-2.59Z"/><path class="cls-22" d="M953.09,349.35l2.68,1.72s-3.46,5.28-5.67,26.1c0,0-5.17,37.48-10.29,47.94,0,0-6.43-1.11-8.54-2.33,0,0,7.81-19.83,8.61-26.74l2.26-16-1.66-23.86s3.46-5,12.18-5.41Z"/><path class="cls-23" d="M953,349.88l2,1.37s-4,7.18-5.18,23.74c0,0-4.62,36.94-10.95,49.94l-.34-.07s6.92-18.23,10.58-49.77c0,0,1.81-17.52,4.93-23.46l-1.18-1.53Z"/><path class="cls-1" d="M957.28,354.83a168.39,168.39,0,0,0-3.09,20.26c-1.13,11.88-3.16,25.6-3.16,25.6h.32s3-21.59,3.32-25.55c0,0,2.51-19.7,2.78-20.16Z"/><path class="cls-22" d="M973.75,387.63l1.2-6.5a12.57,12.57,0,0,1,1.83.93l1.49.31s4.41-12.29,3-19.2c-1-4.13-6.8-7.84-9.19-9.45A27.21,27.21,0,0,0,969.1,352l-.33-4.83c-3.6,4.19-7.49,4.33-7.49,4.33a43.6,43.6,0,0,1-.79,5.83c-1.45,6.8-2,13.79-4.87,37-.81,5.95-2,33.52-2,33.52,6.63,1.82,19.58,1,19.58,1s-1.13-9.68-1.28-19.28C971.89,409.52,971.31,396.29,973.75,387.63Z"/><path class="cls-23" d="M968.8,348s-3.14,3.93-7,4.26l-.27,2.62a16.53,16.53,0,0,1-.38,1.75s-3.89,29.89-4.79,41.31c0,0-1.84,28.52-1.84,30l.45.13,1.84-29.18s3.64-37.07,4.77-41.94l.42-2.06.35-2.36s4.55-1.07,6.48-4.17Z"/><path class="cls-10" d="M967.31,413.5l.8-1.35a.59.59,0,0,0,0-.66c-.88-1.5-3.31-3.34-4.37-4.09a.84.84,0,0,0-1,0l-1.25,1.05,1.44-.86a.65.65,0,0,1,.63.1s3.61,2.54,4.27,3.85c0,0,.15.14,0,.5Z"/><path class="cls-10" d="M939.42,406.28a.84.84,0,0,0-1,0c-.41.29-1,.74-1.67,1.27-.07.2-.13.4-.2.6,1-.86,2-1.56,2-1.56a.67.67,0,0,1,.63-.11l1.44.86Z"/><path class="cls-24" d="M966.87,392.74a10.25,10.25,0,0,0-4.25-2.95,11.62,11.62,0,0,0-4.28-.12c-5.71.53-11.42.83-17.13,1.39a1.62,1.62,0,0,0,.8,1.37,4.13,4.13,0,0,0,1.51.36,41.85,41.85,0,0,0,10.31-.23,20.75,20.75,0,0,1,5.08-.44c2.57.26,5.15,1.69,7.58.92"/><path class="cls-22" d="M964.51,382.4l1,7.85L941,391.39c-11.82.46-10.09-9.9-10.09-9.9a90,90,0,0,1,9.56-25.31l2.86,3.81,3.23,4.09-4.43,16.11Z"/><polygon class="cls-22" points="964.51 382.4 960.37 381.79 960.74 384.88 962.81 386.06 960.78 387.17 960.97 390.63 965.49 390.25 964.51 382.4"/><polygon class="cls-10" points="960.37 381.79 960.74 384.88 962.81 386.06 960.78 387.17 960.97 390.63 960.31 386.92 962.04 386.12 960.35 385.15 960.37 381.79"/><path class="cls-10" d="M937.55,382.79a5.63,5.63,0,0,1,1.49-1.51,5.77,5.77,0,0,1,1.93-.86,2,2,0,0,1,.87-.08,7.91,7.91,0,0,0-4.68,3.23A1.87,1.87,0,0,1,937.55,382.79Z"/><path class="cls-10" d="M942.37,380.31l20.26,1.94S947.34,380.27,942.37,380.31Z"/><path class="cls-10" d="M969.05,370.08a20.84,20.84,0,0,1,.79-3.39,21.83,21.83,0,0,1-.51,3.43,20.72,20.72,0,0,1-.79,3.4A22.13,22.13,0,0,1,969.05,370.08Z"/><path class="cls-24" d="M959.38,398.86a15.69,15.69,0,0,0,2.47-.08,15.9,15.9,0,0,0,3-.62,16.57,16.57,0,0,0,2.78-1.18,14.8,14.8,0,0,0,2.08-1.35c1.12-.87,1.71-1.54,1.75-1.5a2.34,2.34,0,0,1-.39.49,6.26,6.26,0,0,1-.51.52,8.3,8.3,0,0,1-.73.65,14.66,14.66,0,0,1-2.07,1.43,17.26,17.26,0,0,1-2.83,1.22,16.17,16.17,0,0,1-3,.61,13.16,13.16,0,0,1-2.51,0c-.35,0-.67-.08-1-.12a5.55,5.55,0,0,1-.71-.13,3,3,0,0,1-.6-.18C957.11,398.57,958,398.78,959.38,398.86Z"/><path class="cls-25" d="M948.17,397.65a3.86,3.86,0,0,0,.94,1.67,7.51,7.51,0,0,1,.58.55s-.32-.08-.72-.41a3.51,3.51,0,0,1-1.1-1.72,5.1,5.1,0,0,1-.14-2,1.91,1.91,0,0,1,.21-.81A9.77,9.77,0,0,0,948.17,397.65Z"/><path class="cls-25" d="M949.83,398.46c.32.85.83,1.4.77,1.46a3,3,0,0,1-1.18-3.06C949.51,396.87,949.51,397.62,949.83,398.46Z"/><path class="cls-25" d="M951.68,378.68a3.71,3.71,0,0,1,.73,1.6,10.5,10.5,0,0,1-1-1.43,11.55,11.55,0,0,1-1-1.42A3.53,3.53,0,0,1,951.68,378.68Z"/><path class="cls-10" d="M971.21,364.05a13,13,0,0,1,6.58-2.48,5.1,5.1,0,0,1,1.46,0,11.34,11.34,0,0,1-1.44.2,15.46,15.46,0,0,0-6.47,2.44,14.16,14.16,0,0,1-1.21.81A5.25,5.25,0,0,1,971.21,364.05Z"/><path class="cls-10" d="M941.43,356.74a10.81,10.81,0,0,1,2,1.87,11.71,11.71,0,0,1,1.48,2.32,3.69,3.69,0,0,1,.38,1.07,24,24,0,0,0-2.08-3.2,23.39,23.39,0,0,0-2.74-2.62A3.14,3.14,0,0,1,941.43,356.74Z"/><path class="cls-10" d="M951.52,352.71a6.85,6.85,0,0,0,.1,2.92,7,7,0,0,0,7.07,5.4,8.31,8.31,0,0,0,4.93-1.66A9.75,9.75,0,0,0,966.4,356a11.18,11.18,0,0,0,1-2.77c.15-.68.21-1.07.21-1.07a.71.71,0,0,1,0,.29,5.3,5.3,0,0,1-.1.8,10.2,10.2,0,0,1-.93,2.86,9.72,9.72,0,0,1-2.8,3.43,8.47,8.47,0,0,1-5.12,1.7,7.45,7.45,0,0,1-5-1.82,7.36,7.36,0,0,1-2.24-3.81,6.65,6.65,0,0,1,0-3,4.76,4.76,0,0,1,.26-.78,1.42,1.42,0,0,1,.12-.25S951.63,352,951.52,352.71Z"/><path class="cls-10" d="M945.35,369.4a75.3,75.3,0,0,0-3.22,10.52S944,374.39,945.35,369.4Z"/><path class="cls-26" d="M959.44,350.47l-3.63-.18c-2.17,1.91-3.65,8.86-3.65,8.86-.46,2.55-.67,7.54-.8,7.72s1.93,0,4.12.14c.14,0-.32,1.17-.18,1.21a11.75,11.75,0,0,0,3.9.26c.43-.11-.26-12.24-.24-12.54a21.36,21.36,0,0,1,0-2.79A12.3,12.3,0,0,1,959.44,350.47Z"/><path class="cls-27" d="M959.44,350.46l-3.63-.17c-2.25,1.78-4,8.28-4,8.28-.57,2.37-1,7-1.13,7.21s1.93,0,4.12.12c.14,0-.36,1.1-.23,1.14a12.69,12.69,0,0,0,3.89.24c.43-.11.25-11.43.28-11.71a18.68,18.68,0,0,1,.13-2.61A10.66,10.66,0,0,1,959.44,350.46Z"/><path class="cls-1" d="M954.79,365.9s.22-.85.83-4.52,1.38-8.95,2.11-10.71a105.35,105.35,0,0,0-2,10.84,35,35,0,0,1-.88,4.44Z"/><path class="cls-1" d="M956.39,350.63a37.09,37.09,0,0,0-2.58,7.85s-.51,2.13-1.22,7.36l.11,0s.71-4.74,1.34-7.85C954,358,955.27,353.52,956.39,350.63Z"/><path class="cls-28" d="M956.5,350.33s-2.61,5.05-3.91,15.49l-.76,0s1.23-8.23,2.54-10.72C954.37,355.08,956,350.56,956.5,350.33Z"/><path class="cls-29" d="M954.79,365.9s.71-3.66,1-5.44,1.33-7.69,1.45-8,.58-2.06.58-2.06a22.68,22.68,0,0,0-1.83,5.78c-.84,3.87-1.22,5.93-1.24,6.06s-.67,3.5-.67,3.6Z"/><path class="cls-30" d="M958.73,355.57a18.68,18.68,0,0,1,.13-2.61,10.66,10.66,0,0,1,.58-2.5l-.34,0A90.41,90.41,0,0,0,957.37,362s-.34,4.66-.94,5.25c0,0,1.27.05,2,0a5.2,5.2,0,0,0,.14-.63C958.84,364.27,958.7,355.81,958.73,355.57Z"/><path class="cls-31" d="M964.55,390.21l-4-9.34a5,5,0,0,0-.43-1.28c-1.6-3.85-2.8-9.38-4.31-13.26.22,5,3.24,15.24,5.87,24.22A13.44,13.44,0,0,0,964.55,390.21Z"/><path class="cls-15" d="M955.7,366.38a18.52,18.52,0,0,1-2-1.62c-.12-.25-.85-3.08-.85-3.08l-1.18-.44c-.39-.16-.29-1.12-.26-1.71s.73-.94.73-.94a6.52,6.52,0,0,1,0-1.53c.13-.26,1.86-.59,1.86-.59-.07-.34-.12-.68-.16-1,0-.12.42-1.76.94-1.75a28.2,28.2,0,0,1,3.59,1.27,55.9,55.9,0,0,1,1.44-5.69.68.68,0,0,1,.85-.16c.28.15.3.55.27.87l-.56,5.87,1,5.58Z"/><path class="cls-32" d="M955.7,366.38a18.52,18.52,0,0,1-2-1.62c-.12-.25-.85-3.08-.85-3.08l-1.18-.44c-.39-.16-.29-1.12-.26-1.71s.73-.94.73-.94a6.52,6.52,0,0,1,0-1.53c.13-.26,1.86-.59,1.86-.59-.07-.34-.12-.68-.16-1,0-.12.42-1.76.94-1.75a28.2,28.2,0,0,1,3.59,1.27,55.9,55.9,0,0,1,1.44-5.69.68.68,0,0,1,.85-.16c.28.15.3.55.27.87l-.56,5.87,1,5.58Z"/><path class="cls-16" d="M954.35,356.32a2.66,2.66,0,0,1,1-.11,1.55,1.55,0,0,1,.93.41c.19.19.25.36.22.38s-.13-.11-.32-.24a1.9,1.9,0,0,0-.86-.31,4.32,4.32,0,0,0-1,0c-.24,0-.41,0-.41,0S954.11,356.39,954.35,356.32Z"/><path class="cls-16" d="M955.07,356.12c-.09-.14-.11-.29-.05-.32s.17.06.26.21.1.29.05.32S955.16,356.27,955.07,356.12Z"/><path class="cls-16" d="M953.48,358.31a1.49,1.49,0,0,1,.59.09.7.7,0,0,1,.38.32c.16.26.08.44,0,.44s0-.17-.17-.35a1,1,0,0,0-.83-.25,4.29,4.29,0,0,1-1.43,0A3.86,3.86,0,0,1,953.48,358.31Z"/><path class="cls-16" d="M952.9,361c.09.43.1.79,0,.8s-.18-.32-.27-.75-.1-.78,0-.79S952.82,360.55,952.9,361Z"/><path class="cls-22" d="M969.82,379.35l-8.5-17.9-5.59,4.86,6.36,20s2.49,6.66,6.93,8.38c2.88,1.12,5.2-.9,6.61-3.95l2.64-8.33a67.4,67.4,0,0,0-8.42-3h0"/><path class="cls-10" d="M961.32,361.45l7.76,16.28S962.79,363.09,961.32,361.45Z"/><polygon class="cls-22" points="955.65 366.28 956.6 369.43 959.71 367.95 959.69 366.13 961.4 367.04 963.33 365.54 961.32 361.45 955.65 366.28"/><path class="cls-10" d="M963.32,365.55,961.38,367l-1.7-.91,0,1.83-3.11,1.47,3.28-1.34,0-1.68,1.6.9A24,24,0,0,0,963.32,365.55Z"/><path class="cls-10" d="M970.42,379.36a5.12,5.12,0,0,1,2.3,2.17S972.19,379.51,970.42,379.36Z"/><path class="cls-10" d="M970,379.43a11,11,0,0,1,1.13,4.95A5.88,5.88,0,0,0,970,379.43Z"/><path class="cls-33" d="M947.89,323.87c1-5.27,5.24-8.1,10.6-8.05,6,.13,9.3,5.47,9,11.69l.63,18.88h-2.33a1.36,1.36,0,0,0,.21-.9c-.17-1.11-1.88-1.47-2-2.59s1.16-1.66,1.11-2.65c-.07-1.15-1.84-1.67-1.74-2.84s2-1.53,1.9-2.7c-.11-.88-1.54-1.27-1.64-2.15s.64-1.65.93-2.34c-2.31-.16-4.46-2.57-2.16-5.07a3,3,0,0,1-4.13-1.57,3.64,3.64,0,0,1-.28-1c-1.19,1.87-6.64,2-5.21-1.08a2.07,2.07,0,0,1-2.55.84A3.92,3.92,0,0,1,947.89,323.87Z"/><path class="cls-1" d="M961.93,315.7c-1.29-.51-2-2.31-3.47-2.57a3.16,3.16,0,0,0-3.64,1.62c-1.54-3.4-7.31-1.93-5.89,1.92l-.12,2.35a2.27,2.27,0,0,0,0,.74c-1.83-.07-2.91,2.33-2.91,2.33.05,3.93,2.93,1.77,2.93,1.77a3.08,3.08,0,0,0,1.46-2.29A2.24,2.24,0,0,0,953,321c-1.46,3.08,4,2.91,5.21,1.07a3.16,3.16,0,0,0,.27.94,3.32,3.32,0,0,0,4.4,1.71c-3.58,3.79,3.42,8,5,3a3.47,3.47,0,0,0,1.4-5.26C973.85,319.36,966.29,310.89,961.93,315.7Z"/><path class="cls-21" d="M941.17,355.44a.26.26,0,0,1-.11-.07.54.54,0,0,1-.16-.34,1,1,0,0,1,.14-.61,1.11,1.11,0,0,1,.67-.49,9.05,9.05,0,0,1,1-.24,1.51,1.51,0,0,0,1-.64.75.75,0,0,0,0-.62,3,3,0,0,0-.38-.61,1.67,1.67,0,0,1-.33-.73,1.43,1.43,0,0,1,.21-.83c.14-.25.31-.48.46-.73a1.66,1.66,0,0,0,.27-.81,1.26,1.26,0,0,0-.38-.77c-.21-.24-.47-.44-.69-.69a1.14,1.14,0,0,1-.35-1,1,1,0,0,1,.25-.5,1.94,1.94,0,0,1,.44-.31c.32-.16.66-.28,1-.43a2,2,0,0,0,.87-.6,1.21,1.21,0,0,0,.15-1,6.74,6.74,0,0,0-.39-1.06,4.29,4.29,0,0,1-.37-1.15,2.31,2.31,0,0,1,.21-1.21,13.86,13.86,0,0,0,1-2.21,1.73,1.73,0,0,0-.16-1.16,10.8,10.8,0,0,0-.63-1.1,2.71,2.71,0,0,1-.43-1.23,2,2,0,0,1,.43-1.23c.26-.34.56-.63.82-.95a2,2,0,0,0,.51-1A1.83,1.83,0,0,0,946,330c-.19-.34-.43-.65-.61-1a2.2,2.2,0,0,1-.34-1.14,2.35,2.35,0,0,1,.39-1.09,8.78,8.78,0,0,0,.58-.93,1.45,1.45,0,0,0,.14-1c-.14-.67-.66-1.19-.79-1.89a1.32,1.32,0,0,1,.22-1,4.71,4.71,0,0,1,.64-.7,3.32,3.32,0,0,0,.57-.67,1.67,1.67,0,0,0,.22-.79c0-.55-.1-1.08-.07-1.6a3,3,0,0,1,.43-1.37,2.89,2.89,0,0,1,1.85-1.33,3,3,0,0,1,1.45,0,2.11,2.11,0,0,1,.47.19,3.36,3.36,0,0,0-.48-.15,2.85,2.85,0,0,0-1.42,0,2.75,2.75,0,0,0-1.77,1.29,2.69,2.69,0,0,0-.41,1.32c0,.5.1,1,.08,1.6a1.83,1.83,0,0,1-.22.86,3.65,3.65,0,0,1-.59.7,4.5,4.5,0,0,0-.62.69,1.1,1.1,0,0,0-.19.86c.11.62.62,1.15.8,1.87a1.65,1.65,0,0,1-.16,1.09c-.18.33-.37.65-.57.95a2.07,2.07,0,0,0-.37,1,2.11,2.11,0,0,0,.31,1c.19.33.44.65.62,1a2,2,0,0,1,.3,1.2,2.24,2.24,0,0,1-.56,1.13c-.26.32-.56.61-.81.94a1.77,1.77,0,0,0-.4,1.1,2.6,2.6,0,0,0,.43,1.14,9.6,9.6,0,0,1,.65,1.12,2,2,0,0,1,.17,1.29,12.77,12.77,0,0,1-1.06,2.23,2.17,2.17,0,0,0-.19,1.12,4.25,4.25,0,0,0,.34,1.1,6.05,6.05,0,0,1,.41,1.1,1.35,1.35,0,0,1-.19,1.14,2.09,2.09,0,0,1-.92.66c-.34.15-.68.26-1,.43a1,1,0,0,0-.62.69,1,1,0,0,0,.3.86c.22.24.47.43.69.69a1.37,1.37,0,0,1,.41.87,1.61,1.61,0,0,1-.29.86c-.16.25-.33.48-.46.72a1.34,1.34,0,0,0-.2.75,1.44,1.44,0,0,0,.3.68,2.58,2.58,0,0,1,.38.64.84.84,0,0,1,0,.71,1.61,1.61,0,0,1-1.06.68,6.85,6.85,0,0,0-1,.22,1,1,0,0,0-.65.45.89.89,0,0,0-.15.57A.55.55,0,0,0,941.17,355.44Z"/><path class="cls-1" d="M981.6,351a6.19,6.19,0,0,1-.26-2.18c.06-1.39.29-2.93-.41-4.14s-2.52-2.09-2.6-3.61c-.05-1.2,1-2.23,1-3.42s-1.14-2.14-1.32-3.34c-.26-1.63,1.27-3.22.8-4.8s-3-2.25-3.29-4c-.12-1,.52-2.06.06-2.92-.39-.69-1.33-.88-1.74-1.54-.61-1,.23-2.36-.24-3.42-.64-1.42-2.91-1-3.93-2.2-.64-.75-.58-1.92-1.2-2.68-.85-1-2.41-.8-3.73-.73-1,.05-2.05-.05-3.06.07a3.76,3.76,0,0,0-2.64,1.39,2.06,2.06,0,0,0,.26,2.78c-.54.61.43,2.32,1.1,2.77s1.64.62,1.84,1.42-1.06,1.87.22,3.16c.4.41,1.27.07,1.57.57s-.53,1.22-.71,1.92c-.36,1.35,2,2.17,1.76,3.54-.14.87-1.29,1.39-1.2,2.26s1.42,1.21,1.51,2.09c.12,1.15-1.83,1.52-1.94,2.67s1.66,1.66,1.71,2.8c0,1-1.21,1.64-1.14,2.61s1.78,1.46,1.93,2.56c.2,1.33-2,2.13-1.73,3.44.1.43.53.71.71,1.11a3.81,3.81,0,0,1-1.36,4.23l.66.2c2,.58,5.81-1.31,5.81-1.31a1.76,1.76,0,0,1,1.41.23,6.46,6.46,0,0,0,4.21.63c.9-.4,1.74-1,2.57-.46l.5-.09a4.8,4.8,0,0,0,1.47.27A1.42,1.42,0,0,0,981.6,351Z"/><path class="cls-34" d="M980.93,346.94c-.13.4-.25.8-.38,1.19a2,2,0,0,0-.13.41,1.13,1.13,0,0,1,0,.18s-.06.14,0,.18a1.46,1.46,0,0,1,.06-.62c.13-.53.28-1.06.46-1.57s.41-1.11.66-1.68c.12-.29.26-.58.4-.87a4.79,4.79,0,0,0,.33-.92,1.09,1.09,0,0,0-.18-.91,1.42,1.42,0,0,0-.84-.43,9.54,9.54,0,0,1-1-.26,1.3,1.3,0,0,1-.81-.76,2,2,0,0,1,0-1.17,5.29,5.29,0,0,1,.42-1.11,4.37,4.37,0,0,0,.36-1.11,1.47,1.47,0,0,0-.24-1.1,6,6,0,0,0-.85-.82,2.12,2.12,0,0,1-.64-1.1,5.09,5.09,0,0,1,.37-2.58,8.44,8.44,0,0,0,.3-1.25,2.52,2.52,0,0,0-.09-1.22,4.75,4.75,0,0,0-1.52-1.81,5,5,0,0,1-.83-.88,2,2,0,0,1-.39-1.15,6.47,6.47,0,0,1,.17-1.17,1.54,1.54,0,0,0-.1-1.06,1.94,1.94,0,0,0-.8-.65,5.5,5.5,0,0,1-.9-.54,1.41,1.41,0,0,1-.5-.94,3,3,0,0,1,.09-1,4.51,4.51,0,0,0,.22-1.89,2.51,2.51,0,0,0-.93-1.4,4.57,4.57,0,0,0-1.34-.72c-.46-.17-.92-.27-1.32-.44a5.29,5.29,0,0,1-1.12-.49,3.51,3.51,0,0,1-.8-.65,2.29,2.29,0,0,1-.61-1.3,1.25,1.25,0,0,1,0-.51,2.9,2.9,0,0,0,0,.51,2.36,2.36,0,0,0,.63,1.26,3.47,3.47,0,0,0,.79.64,5.6,5.6,0,0,0,1.1.47c.42.13.86.26,1.33.43a4.63,4.63,0,0,1,1.39.73,2.6,2.6,0,0,1,1,1.46,4.63,4.63,0,0,1-.2,2,2.81,2.81,0,0,0-.09,1,1.26,1.26,0,0,0,.46.83,4.68,4.68,0,0,0,.88.53,2,2,0,0,1,.85.71,1.63,1.63,0,0,1,.13,1.17,8.45,8.45,0,0,0-.19,1.12,2,2,0,0,0,.36,1.05,5,5,0,0,0,.81.84,11.68,11.68,0,0,1,.89.82,2.92,2.92,0,0,1,.68,1.07,2.76,2.76,0,0,1,.1,1.31A8.23,8.23,0,0,1,979,332a5.27,5.27,0,0,0-.34,2.49,1.86,1.86,0,0,0,.59,1,5.89,5.89,0,0,1,.87.86,1.56,1.56,0,0,1,.27,1.21,4.71,4.71,0,0,1-.38,1.17,5.86,5.86,0,0,0-.41,1.08,2,2,0,0,0,0,1.08,1.13,1.13,0,0,0,.72.68c.33.1.66.18,1,.25a1.55,1.55,0,0,1,.92.49,1.25,1.25,0,0,1,.2,1,4.51,4.51,0,0,1-.35.95c-.14.29-.27.58-.4.86-.25.57-.47,1.13-.66,1.67Z"/><path class="cls-21" d="M969.61,351.89l.19,0,.57-.09a2,2,0,0,0,.82-.34,1,1,0,0,0,.37-1,1,1,0,0,0-.48-.51c-.22-.14-.48-.24-.74-.4a.92.92,0,0,1-.34-.31.66.66,0,0,1-.09-.45,1.63,1.63,0,0,1,.51-.76,1.82,1.82,0,0,0,.52-.77,1.72,1.72,0,0,0,0-1,2,2,0,0,0-1.63-1.37l-.08,0,0-.07a2.31,2.31,0,0,1,.87-1.34,9.42,9.42,0,0,0,1.23-1.13,1.85,1.85,0,0,0,.38-.72,1,1,0,0,0-.1-.8c-.29-.51-.94-.77-1.49-1.16a1.42,1.42,0,0,1-.61-.8,1.21,1.21,0,0,1,.22-.94c.35-.54.9-1,1-1.57a1.26,1.26,0,0,0-.19-.88,3.12,3.12,0,0,0-.65-.76,15,15,0,0,1-1.6-1.37,1.66,1.66,0,0,1-.47-1.17,2.45,2.45,0,0,1,.41-1.14c.2-.34.44-.67.6-1a1.89,1.89,0,0,0,.18-.52,1,1,0,0,0-.07-.51,1.69,1.69,0,0,0-.79-.77,8.71,8.71,0,0,1-1-.63,1.27,1.27,0,0,1-.48-1,2.4,2.4,0,0,1,.32-1c.16-.31.33-.6.45-.9a1.67,1.67,0,0,0,.14-.91,1.48,1.48,0,0,0-.48-.76,3.31,3.31,0,0,0-.82-.51c-.57-.27-1.2-.45-1.72-.75a2.61,2.61,0,0,1-.68-.55,1.92,1.92,0,0,1-.35-.7c-.15-.49-.16-1-.27-1.38a2.29,2.29,0,0,0-.59-1.09,2.68,2.68,0,0,0-1.93-.78,2.93,2.93,0,0,0-1.34.31c-.14.07-.28.16-.41.24a2.09,2.09,0,0,1,.39-.27,3,3,0,0,1,1.36-.35,2.79,2.79,0,0,1,2,.79,2.45,2.45,0,0,1,.62,1.12c.11.44.14.91.28,1.37a1.85,1.85,0,0,0,1,1.18c.52.29,1.12.46,1.73.74a3.91,3.91,0,0,1,.85.53,1.6,1.6,0,0,1,.52.84,1.65,1.65,0,0,1-.13,1c-.13.32-.3.61-.45.91a2.3,2.3,0,0,0-.3.95,1.1,1.1,0,0,0,.42.88,9.2,9.2,0,0,0,1,.61,1.86,1.86,0,0,1,.86.85,1.09,1.09,0,0,1,.08.59,1.69,1.69,0,0,1-.19.56c-.16.34-.4.67-.6,1a2.16,2.16,0,0,0-.38,1.06,1.5,1.5,0,0,0,.42,1.06,16.16,16.16,0,0,0,1.6,1.36,3.44,3.44,0,0,1,.67.8,1.39,1.39,0,0,1,.2,1,4.85,4.85,0,0,1-1,1.62,1.09,1.09,0,0,0-.19.82,1.31,1.31,0,0,0,.54.71c.26.19.55.34.82.53a2.1,2.1,0,0,1,.73.69,1.28,1.28,0,0,1,.11.92,2.25,2.25,0,0,1-.41.78,8.61,8.61,0,0,1-1.27,1.14,2.17,2.17,0,0,0-.82,1.26l-.07-.09a2.16,2.16,0,0,1,1.75,1.49,1.83,1.83,0,0,1-.57,1.86,1.56,1.56,0,0,0-.51.71.67.67,0,0,0,.38.66c.24.15.5.26.73.4a.9.9,0,0,1,.47,1.2v0a1.24,1.24,0,0,1-.35.44,2,2,0,0,1-.86.34A5.12,5.12,0,0,1,969.61,351.89Z"/><path class="cls-21" d="M977.57,351.75a3.24,3.24,0,0,0,.36-.38,2,2,0,0,0,.32-1.43,1.68,1.68,0,0,0-.49-.94c-.14-.15-.28-.31-.41-.48a.89.89,0,0,1-.18-.67c.08-.51.54-.85.67-1.34a.82.82,0,0,0-.15-.73,3.35,3.35,0,0,0-.6-.59,3.29,3.29,0,0,1-.63-.66,1.32,1.32,0,0,1-.23-.95,11.41,11.41,0,0,1,.69-1.9,1.7,1.7,0,0,0,0-1,2,2,0,0,0-.64-.81,8.41,8.41,0,0,1-.86-.72,1.31,1.31,0,0,1-.41-1.11,4.66,4.66,0,0,1,.39-1.14,1.39,1.39,0,0,0,.11-1.11,2.28,2.28,0,0,0-.81-.85,2.09,2.09,0,0,1-.81-1,1.94,1.94,0,0,1,.16-1.32,8.05,8.05,0,0,1,.66-1.14,3.16,3.16,0,0,0,.52-1.17,1.49,1.49,0,0,0-.31-1.19,3.71,3.71,0,0,0-1.05-.76c-.38-.21-.78-.4-1.15-.64a2.5,2.5,0,0,1-.92-1,3,3,0,0,1-.31-1.28,23.39,23.39,0,0,1,.22-2.51,5.25,5.25,0,0,0,0-1.19,2.17,2.17,0,0,0-.51-1,4.1,4.1,0,0,0-2-.85,4.72,4.72,0,0,1-1-.35,2.1,2.1,0,0,1-.82-.69,6.64,6.64,0,0,1-.74-1.88,4.32,4.32,0,0,0-.38-.85,3.28,3.28,0,0,0-.55-.68,4.18,4.18,0,0,0-2.85-1.05,6,6,0,0,0-2.28.54,10.63,10.63,0,0,0-1.33.72l-.32.22-.12.07.11-.09.32-.23a8.07,8.07,0,0,1,1.31-.75,6,6,0,0,1,2.31-.58,4.23,4.23,0,0,1,2.93,1.06,3,3,0,0,1,.59.7,3.64,3.64,0,0,1,.39.88,7.27,7.27,0,0,0,.73,1.86,2.2,2.2,0,0,0,.78.64,5.86,5.86,0,0,0,1,.33c.35.1.72.16,1.08.29a2.59,2.59,0,0,1,1,.59,2.45,2.45,0,0,1,.55,1.09,5.14,5.14,0,0,1,0,1.24,22.8,22.8,0,0,0-.22,2.49,2.94,2.94,0,0,0,.29,1.2,2.4,2.4,0,0,0,.87.89,12.41,12.41,0,0,0,1.14.63,4,4,0,0,1,1.09.8,1.69,1.69,0,0,1,.35,1.34,3.52,3.52,0,0,1-.54,1.24,7.84,7.84,0,0,0-.66,1.12,1.78,1.78,0,0,0-.14,1.18,1.87,1.87,0,0,0,.75.91,2.62,2.62,0,0,1,.86.92,1.31,1.31,0,0,1,.07.65,3,3,0,0,1-.18.6,4.72,4.72,0,0,0-.39,1.11,1.19,1.19,0,0,0,.37,1c.27.25.55.49.84.71a2,2,0,0,1,.69.88,1.84,1.84,0,0,1-.05,1.09,13.9,13.9,0,0,0-.68,1.88,1.19,1.19,0,0,0,.19.86,2.85,2.85,0,0,0,.62.63,4,4,0,0,1,.62.62,1,1,0,0,1,.15.83c-.16.55-.61.87-.68,1.32a.82.82,0,0,0,.16.61,3.67,3.67,0,0,0,.4.47,1.73,1.73,0,0,1,.51,1,1.92,1.92,0,0,1-.36,1.46A1.26,1.26,0,0,1,977.57,351.75Z"/></g></g><g id="Layer_7" data-name="Layer 7"><rect class="cls-35" width="1920" height="620"/></g></g></svg>