<svg width="468" height="221" viewBox="0 0 468 221" fill="none" xmlns="http://www.w3.org/2000/svg">
<path d="M7.888 80.776V57.88H47.776V163H22.144V80.776H7.888ZM97.5966 81.496C103.261 81.496 108.205 82.648 112.429 84.952C116.749 87.256 120.061 90.28 122.365 94.024V82.648H146.989V162.856C146.989 170.248 145.501 176.92 142.525 182.872C139.645 188.92 135.181 193.72 129.133 197.272C123.181 200.824 115.741 202.6 106.813 202.6C94.9086 202.6 85.2606 199.768 77.8686 194.104C70.4766 188.536 66.2526 180.952 65.1966 171.352H89.5326C90.3006 174.424 92.1246 176.824 95.0046 178.552C97.8846 180.376 101.437 181.288 105.661 181.288C110.749 181.288 114.781 179.8 117.757 176.824C120.829 173.944 122.365 169.288 122.365 162.856V151.48C119.965 155.224 116.653 158.296 112.429 160.696C108.205 163 103.261 164.152 97.5966 164.152C90.9726 164.152 84.9726 162.472 79.5966 159.112C74.2206 155.656 69.9486 150.808 66.7806 144.568C63.7086 138.232 62.1726 130.936 62.1726 122.68C62.1726 114.424 63.7086 107.176 66.7806 100.936C69.9486 94.696 74.2206 89.896 79.5966 86.536C84.9726 83.176 90.9726 81.496 97.5966 81.496ZM122.365 122.824C122.365 116.68 120.637 111.832 117.181 108.28C113.821 104.728 109.693 102.952 104.797 102.952C99.9006 102.952 95.7246 104.728 92.2686 108.28C88.9086 111.736 87.2286 116.536 87.2286 122.68C87.2286 128.824 88.9086 133.72 92.2686 137.368C95.7246 140.92 99.9006 142.696 104.797 142.696C109.693 142.696 113.821 140.92 117.181 137.368C120.637 133.816 122.365 128.968 122.365 122.824ZM189.427 96.04C192.307 91.624 195.907 88.168 200.227 85.672C204.547 83.08 209.347 81.784 214.627 81.784V107.848H207.859C201.715 107.848 197.107 109.192 194.035 111.88C190.963 114.472 189.427 119.08 189.427 125.704V163H164.803V82.648H189.427V96.04ZM221.501 122.68C221.501 114.424 223.037 107.176 226.109 100.936C229.277 94.696 233.549 89.896 238.925 86.536C244.301 83.176 250.301 81.496 256.925 81.496C262.589 81.496 267.533 82.648 271.757 84.952C276.077 87.256 279.389 90.28 281.693 94.024V82.648H306.317V163H281.693V151.624C279.293 155.368 275.933 158.392 271.613 160.696C267.389 163 262.445 164.152 256.781 164.152C250.253 164.152 244.301 162.472 238.925 159.112C233.549 155.656 229.277 150.808 226.109 144.568C223.037 138.232 221.501 130.936 221.501 122.68ZM281.693 122.824C281.693 116.68 279.965 111.832 276.509 108.28C273.149 104.728 269.021 102.952 264.125 102.952C259.229 102.952 255.053 104.728 251.597 108.28C248.237 111.736 246.557 116.536 246.557 122.68C246.557 128.824 248.237 133.72 251.597 137.368C255.053 140.92 259.229 142.696 264.125 142.696C269.021 142.696 273.149 140.92 276.509 137.368C279.965 133.816 281.693 128.968 281.693 122.824ZM426.659 81.784C436.643 81.784 444.563 84.808 450.419 90.856C456.371 96.904 459.347 105.304 459.347 116.056V163H434.867V119.368C434.867 114.184 433.475 110.2 430.691 107.416C428.003 104.536 424.259 103.096 419.459 103.096C414.659 103.096 410.867 104.536 408.083 107.416C405.395 110.2 404.051 114.184 404.051 119.368V163H379.571V119.368C379.571 114.184 378.179 110.2 375.395 107.416C372.707 104.536 368.963 103.096 364.163 103.096C359.363 103.096 355.571 104.536 352.787 107.416C350.099 110.2 348.755 114.184 348.755 119.368V163H324.131V82.648H348.755V92.728C351.251 89.368 354.515 86.728 358.547 84.808C362.579 82.792 367.139 81.784 372.227 81.784C378.275 81.784 383.651 83.08 388.355 85.672C393.155 88.264 396.899 91.96 399.587 96.76C402.371 92.344 406.163 88.744 410.963 85.96C415.763 83.176 420.995 81.784 426.659 81.784Z" fill="white"/>
<path d="M7.888 80.776H6.888V81.776H7.888V80.776ZM7.888 57.88V56.88H6.888V57.88H7.888ZM47.776 57.88H48.776V56.88H47.776V57.88ZM47.776 163V164H48.776V163H47.776ZM22.144 163H21.144V164H22.144V163ZM22.144 80.776H23.144V79.776H22.144V80.776ZM8.888 80.776V57.88H6.888V80.776H8.888ZM7.888 58.88H47.776V56.88H7.888V58.88ZM46.776 57.88V163H48.776V57.88H46.776ZM47.776 162H22.144V164H47.776V162ZM23.144 163V80.776H21.144V163H23.144ZM22.144 79.776H7.888V81.776H22.144V79.776ZM112.429 84.952L111.95 85.8299L111.958 85.8343L112.429 84.952ZM122.365 94.024L121.513 94.5481L123.365 97.557V94.024H122.365ZM122.365 82.648V81.648H121.365V82.648H122.365ZM146.989 82.648H147.989V81.648H146.989V82.648ZM142.525 182.872L141.63 182.425L141.626 182.433L141.622 182.442L142.525 182.872ZM129.133 197.272L128.626 196.41L128.62 196.413L129.133 197.272ZM77.8686 194.104L78.4769 193.31L78.4703 193.305L77.8686 194.104ZM65.1966 171.352V170.352H64.0806L64.2026 171.461L65.1966 171.352ZM89.5326 171.352L90.5028 171.109L90.3134 170.352H89.5326V171.352ZM95.0046 178.552L95.5397 177.707L95.5295 177.701L95.5191 177.695L95.0046 178.552ZM117.757 176.824L117.073 176.094L117.061 176.105L117.05 176.117L117.757 176.824ZM122.365 151.48H123.365V148.067L121.523 150.94L122.365 151.48ZM112.429 160.696L112.907 161.574L112.915 161.57L112.923 161.565L112.429 160.696ZM79.5966 159.112L79.0558 159.953L79.0666 159.96L79.5966 159.112ZM66.7806 144.568L65.8808 145.004L65.8848 145.013L65.889 145.021L66.7806 144.568ZM66.7806 100.936L65.8889 100.483L65.8835 100.494L66.7806 100.936ZM79.5966 86.536L80.1266 87.384L79.5966 86.536ZM117.181 108.28L116.454 108.967L116.464 108.977L117.181 108.28ZM92.2686 108.28L91.5519 107.583L91.5516 107.583L92.2686 108.28ZM92.2686 137.368L91.5331 138.045L91.5424 138.056L91.5519 138.065L92.2686 137.368ZM117.181 137.368L116.464 136.671L116.454 136.681L117.181 137.368ZM97.5966 82.496C103.123 82.496 107.897 83.6191 111.95 85.8299L112.907 84.0741C108.513 81.6769 103.398 80.496 97.5966 80.496V82.496ZM111.958 85.8343C116.14 88.0646 119.312 90.9719 121.513 94.5481L123.216 93.4999C120.809 89.5881 117.358 86.4474 112.899 84.0696L111.958 85.8343ZM123.365 94.024V82.648H121.365V94.024H123.365ZM122.365 83.648H146.989V81.648H122.365V83.648ZM145.989 82.648V162.856H147.989V82.648H145.989ZM145.989 162.856C145.989 170.11 144.529 176.626 141.63 182.425L143.419 183.319C146.472 177.214 147.989 170.386 147.989 162.856H145.989ZM141.622 182.442C138.832 188.301 134.51 192.954 128.626 196.41L129.639 198.134C135.851 194.486 140.457 189.539 143.427 183.302L141.622 182.442ZM128.62 196.413C122.862 199.85 115.611 201.6 106.813 201.6V203.6C115.87 203.6 123.5 201.798 129.645 198.131L128.62 196.413ZM106.813 201.6C95.0667 201.6 85.6509 198.807 78.4768 193.31L77.2604 194.898C84.8704 200.729 94.7505 203.6 106.813 203.6V201.6ZM78.4703 193.305C71.3091 187.911 67.218 180.582 66.1906 171.243L64.2026 171.461C65.2873 181.322 69.6442 189.161 77.267 194.903L78.4703 193.305ZM65.1966 172.352H89.5326V170.352H65.1966V172.352ZM88.5625 171.595C89.399 174.941 91.398 177.554 94.4901 179.41L95.5191 177.695C92.8512 176.094 91.2022 173.907 90.5028 171.109L88.5625 171.595ZM94.4696 179.397C97.544 181.344 101.292 182.288 105.661 182.288V180.288C101.581 180.288 98.2253 179.408 95.5397 177.707L94.4696 179.397ZM105.661 182.288C110.955 182.288 115.262 180.733 118.464 177.531L117.05 176.117C114.299 178.867 110.543 180.288 105.661 180.288V182.288ZM118.441 177.554C121.8 174.404 123.365 169.42 123.365 162.856H121.365C121.365 169.156 119.858 173.484 117.073 176.094L118.441 177.554ZM123.365 162.856V151.48H121.365V162.856H123.365ZM121.523 150.94C119.218 154.535 116.031 157.499 111.935 159.827L112.923 161.565C117.274 159.093 120.711 155.913 123.207 152.02L121.523 150.94ZM111.95 159.818C107.897 162.029 103.123 163.152 97.5966 163.152V165.152C103.398 165.152 108.513 163.971 112.907 161.574L111.95 159.818ZM97.5966 163.152C91.1512 163.152 85.3364 161.52 80.1266 158.264L79.0666 159.96C84.6089 163.424 90.794 165.152 97.5966 165.152V163.152ZM80.1374 158.271C74.9247 154.92 70.7678 150.212 67.6723 144.115L65.889 145.021C69.1295 151.404 73.5165 156.392 79.0559 159.953L80.1374 158.271ZM67.6804 144.132C64.6848 137.953 63.1726 130.811 63.1726 122.68H61.1726C61.1726 131.061 62.7324 138.511 65.8808 145.004L67.6804 144.132ZM63.1726 122.68C63.1726 114.549 64.685 107.457 67.6778 101.378L65.8835 100.494C62.7323 106.895 61.1726 114.299 61.1726 122.68H63.1726ZM67.6723 101.389C70.7667 95.2935 74.9206 90.6378 80.1266 87.384L79.0666 85.688C73.5206 89.1542 69.1305 94.0984 65.889 100.483L67.6723 101.389ZM80.1266 87.384C85.3364 84.1279 91.1512 82.496 97.5966 82.496V80.496C90.794 80.496 84.6089 82.2241 79.0666 85.688L80.1266 87.384ZM123.365 122.824C123.365 116.485 121.576 111.364 117.897 107.583L116.464 108.977C119.697 112.3 121.365 116.875 121.365 122.824H123.365ZM117.907 107.593C114.358 103.841 109.967 101.952 104.797 101.952V103.952C109.418 103.952 113.283 105.615 116.454 108.967L117.907 107.593ZM104.797 101.952C99.627 101.952 95.1936 103.84 91.5519 107.583L92.9854 108.977C96.2557 105.616 100.174 103.952 104.797 103.952V101.952ZM91.5516 107.583C87.964 111.273 86.2286 116.35 86.2286 122.68H88.2286C88.2286 116.722 89.8532 112.199 92.9856 108.977L91.5516 107.583ZM86.2286 122.68C86.2286 129.012 87.9648 134.171 91.5331 138.045L93.0042 136.691C89.8524 133.269 88.2286 128.636 88.2286 122.68H86.2286ZM91.5519 138.065C95.1936 141.808 99.627 143.696 104.797 143.696V141.696C100.174 141.696 96.2557 140.032 92.9854 136.671L91.5519 138.065ZM104.797 143.696C109.967 143.696 114.358 141.807 117.907 138.055L116.454 136.681C113.283 140.033 109.418 141.696 104.797 141.696V143.696ZM117.897 138.065C121.576 134.284 123.365 129.163 123.365 122.824H121.365C121.365 128.773 119.697 133.348 116.464 136.671L117.897 138.065ZM189.427 96.04H188.427V99.4039L190.265 96.5863L189.427 96.04ZM200.227 85.672L200.727 86.5379L200.734 86.5337L200.742 86.5295L200.227 85.672ZM214.627 81.784H215.627V80.784H214.627V81.784ZM214.627 107.848V108.848H215.627V107.848H214.627ZM194.035 111.88L194.68 112.644L194.687 112.638L194.694 112.633L194.035 111.88ZM189.427 163V164H190.427V163H189.427ZM164.803 163H163.803V164H164.803V163ZM164.803 82.648V81.648H163.803V82.648H164.803ZM189.427 82.648H190.427V81.648H189.427V82.648ZM190.265 96.5863C193.064 92.2941 196.551 88.9508 200.727 86.5379L199.727 84.8061C195.263 87.3852 191.55 90.9538 188.589 95.4937L190.265 96.5863ZM200.742 86.5295C204.898 84.0353 209.519 82.784 214.627 82.784V80.784C209.175 80.784 204.196 82.1247 199.713 84.8145L200.742 86.5295ZM213.627 81.784V107.848H215.627V81.784H213.627ZM214.627 106.848H207.859V108.848H214.627V106.848ZM207.859 106.848C201.591 106.848 196.704 108.216 193.376 111.127L194.694 112.633C197.51 110.168 201.839 108.848 207.859 108.848V106.848ZM193.39 111.116C189.981 113.992 188.427 118.972 188.427 125.704H190.427C190.427 119.188 191.945 114.952 194.68 112.644L193.39 111.116ZM188.427 125.704V163H190.427V125.704H188.427ZM189.427 162H164.803V164H189.427V162ZM165.803 163V82.648H163.803V163H165.803ZM164.803 83.648H189.427V81.648H164.803V83.648ZM188.427 82.648V96.04H190.427V82.648H188.427ZM226.109 100.936L225.217 100.483L225.212 100.494L226.109 100.936ZM238.925 86.536L239.455 87.384L238.925 86.536ZM271.757 84.952L271.278 85.8299L271.286 85.8343L271.757 84.952ZM281.693 94.024L280.841 94.5481L282.693 97.557V94.024H281.693ZM281.693 82.648V81.648H280.693V82.648H281.693ZM306.317 82.648H307.317V81.648H306.317V82.648ZM306.317 163V164H307.317V163H306.317ZM281.693 163H280.693V164H281.693V163ZM281.693 151.624H282.693V148.211L280.851 151.084L281.693 151.624ZM271.613 160.696L271.142 159.814L271.134 159.818L271.613 160.696ZM238.925 159.112L238.384 159.953L238.395 159.96L238.925 159.112ZM226.109 144.568L225.209 145.004L225.213 145.013L225.217 145.021L226.109 144.568ZM276.509 108.28L275.782 108.967L275.792 108.977L276.509 108.28ZM251.597 108.28L250.88 107.583L250.88 107.583L251.597 108.28ZM251.597 137.368L250.861 138.045L250.87 138.056L250.88 138.065L251.597 137.368ZM276.509 137.368L275.792 136.671L275.782 136.681L276.509 137.368ZM222.501 122.68C222.501 114.549 224.013 107.457 227.006 101.378L225.212 100.494C222.06 106.895 220.501 114.299 220.501 122.68H222.501ZM227 101.389C230.095 95.2935 234.249 90.6378 239.455 87.384L238.395 85.688C232.849 89.1542 228.459 94.0984 225.217 100.483L227 101.389ZM239.455 87.384C244.665 84.1279 250.479 82.496 256.925 82.496V80.496C250.122 80.496 243.937 82.2241 238.395 85.688L239.455 87.384ZM256.925 82.496C262.451 82.496 267.225 83.6191 271.278 85.8299L272.236 84.0741C267.841 81.6769 262.726 80.496 256.925 80.496V82.496ZM271.286 85.8343C275.468 88.0646 278.64 90.9719 280.841 94.5481L282.544 93.4999C280.137 89.5881 276.686 86.4474 272.227 84.0696L271.286 85.8343ZM282.693 94.024V82.648H280.693V94.024H282.693ZM281.693 83.648H306.317V81.648H281.693V83.648ZM305.317 82.648V163H307.317V82.648H305.317ZM306.317 162H281.693V164H306.317V162ZM282.693 163V151.624H280.693V163H282.693ZM280.851 151.084C278.552 154.67 275.327 157.582 271.142 159.814L272.083 161.578C276.539 159.202 280.033 156.066 282.535 152.164L280.851 151.084ZM271.134 159.818C267.081 162.029 262.307 163.152 256.781 163.152V165.152C262.582 165.152 267.697 163.971 272.092 161.574L271.134 159.818ZM256.781 163.152C250.434 163.152 244.667 161.522 239.455 158.264L238.395 159.96C243.935 163.422 250.071 165.152 256.781 165.152V163.152ZM239.466 158.271C234.253 154.92 230.096 150.212 227 144.115L225.217 145.021C228.458 151.404 232.845 156.392 238.384 159.953L239.466 158.271ZM227.009 144.132C224.013 137.953 222.501 130.811 222.501 122.68H220.501C220.501 131.061 222.061 138.511 225.209 145.004L227.009 144.132ZM282.693 122.824C282.693 116.485 280.904 111.364 277.225 107.583L275.792 108.977C279.025 112.3 280.693 116.875 280.693 122.824H282.693ZM277.235 107.593C273.686 103.841 269.295 101.952 264.125 101.952V103.952C268.746 103.952 272.611 105.615 275.782 108.967L277.235 107.593ZM264.125 101.952C258.955 101.952 254.522 103.84 250.88 107.583L252.313 108.977C255.584 105.616 259.502 103.952 264.125 103.952V101.952ZM250.88 107.583C247.292 111.273 245.557 116.35 245.557 122.68H247.557C247.557 116.722 249.181 112.199 252.314 108.977L250.88 107.583ZM245.557 122.68C245.557 129.012 247.293 134.171 250.861 138.045L252.332 136.691C249.181 133.269 247.557 128.636 247.557 122.68H245.557ZM250.88 138.065C254.522 141.808 258.955 143.696 264.125 143.696V141.696C259.502 141.696 255.584 140.032 252.313 136.671L250.88 138.065ZM264.125 143.696C269.295 143.696 273.686 141.807 277.235 138.055L275.782 136.681C272.611 140.033 268.746 141.696 264.125 141.696V143.696ZM277.225 138.065C280.904 134.284 282.693 129.163 282.693 122.824H280.693C280.693 128.773 279.025 133.348 275.792 136.671L277.225 138.065ZM450.419 90.856L449.701 91.5516L449.706 91.5574L450.419 90.856ZM459.347 163V164H460.347V163H459.347ZM434.867 163H433.867V164H434.867V163ZM430.691 107.416L429.96 108.098L429.972 108.111L429.984 108.123L430.691 107.416ZM408.083 107.416L407.364 106.721L407.364 106.721L408.083 107.416ZM404.051 163V164H405.051V163H404.051ZM379.571 163H378.571V164H379.571V163ZM375.395 107.416L374.664 108.098L374.676 108.111L374.688 108.123L375.395 107.416ZM352.787 107.416L352.068 106.721L352.068 106.721L352.787 107.416ZM348.755 163V164H349.755V163H348.755ZM324.131 163H323.131V164H324.131V163ZM324.131 82.648V81.648H323.131V82.648H324.131ZM348.755 82.648H349.755V81.648H348.755V82.648ZM348.755 92.728H347.755V95.7511L349.558 93.3243L348.755 92.728ZM358.547 84.808L358.977 85.7109L358.986 85.7067L358.994 85.7024L358.547 84.808ZM388.355 85.672L387.872 86.5479L387.88 86.5519L388.355 85.672ZM399.587 96.76L398.715 97.2486L399.536 98.7158L400.433 97.2933L399.587 96.76ZM426.659 82.784C436.427 82.784 444.068 85.734 449.701 91.5516L451.138 90.1604C445.058 83.882 436.86 80.784 426.659 80.784V82.784ZM449.706 91.5574C455.428 97.3718 458.347 105.493 458.347 116.056H460.347C460.347 105.115 457.314 96.4362 451.132 90.1546L449.706 91.5574ZM458.347 116.056V163H460.347V116.056H458.347ZM459.347 162H434.867V164H459.347V162ZM435.867 163V119.368H433.867V163H435.867ZM435.867 119.368C435.867 114.006 434.424 109.734 431.398 106.709L429.984 108.123C432.527 110.666 433.867 114.362 433.867 119.368H435.867ZM431.422 106.734C428.505 103.608 424.471 102.096 419.459 102.096V104.096C424.047 104.096 427.502 105.464 429.96 108.098L431.422 106.734ZM419.459 102.096C414.446 102.096 410.373 103.608 407.364 106.721L408.802 108.111C411.361 105.464 414.872 104.096 419.459 104.096V102.096ZM407.364 106.721C404.441 109.748 403.051 114.015 403.051 119.368H405.051C405.051 114.353 406.349 110.652 408.803 108.111L407.364 106.721ZM403.051 119.368V163H405.051V119.368H403.051ZM404.051 162H379.571V164H404.051V162ZM380.571 163V119.368H378.571V163H380.571ZM380.571 119.368C380.571 114.006 379.128 109.734 376.102 106.709L374.688 108.123C377.231 110.666 378.571 114.362 378.571 119.368H380.571ZM376.126 106.734C373.209 103.608 369.175 102.096 364.163 102.096V104.096C368.751 104.096 372.206 105.464 374.664 108.098L376.126 106.734ZM364.163 102.096C359.15 102.096 355.077 103.608 352.068 106.721L353.506 108.111C356.065 105.464 359.576 104.096 364.163 104.096V102.096ZM352.068 106.721C349.146 109.748 347.755 114.015 347.755 119.368H349.755C349.755 114.353 351.053 110.652 353.507 108.111L352.068 106.721ZM347.755 119.368V163H349.755V119.368H347.755ZM348.755 162H324.131V164H348.755V162ZM325.131 163V82.648H323.131V163H325.131ZM324.131 83.648H348.755V81.648H324.131V83.648ZM347.755 82.648V92.728H349.755V82.648H347.755ZM349.558 93.3243C351.95 90.1041 355.082 87.5655 358.977 85.7109L358.117 83.9051C353.948 85.8905 350.552 88.6319 347.952 92.1317L349.558 93.3243ZM358.994 85.7024C362.871 83.7643 367.274 82.784 372.227 82.784V80.784C367.004 80.784 362.288 81.8197 358.1 83.9136L358.994 85.7024ZM372.227 82.784C378.128 82.784 383.334 84.0471 387.873 86.5478L388.838 84.7962C383.968 82.1129 378.422 80.784 372.227 80.784V82.784ZM387.88 86.5519C392.512 89.053 396.118 92.6126 398.715 97.2486L400.46 96.2714C397.68 91.3074 393.799 87.475 388.83 84.7921L387.88 86.5519ZM400.433 97.2933C403.125 93.0227 406.796 89.5332 411.465 86.825L410.461 85.095C405.531 87.9548 401.617 91.6653 398.741 96.2267L400.433 97.2933ZM411.465 86.825C416.109 84.1313 421.168 82.784 426.659 82.784V80.784C420.823 80.784 415.417 82.2207 410.461 85.095L411.465 86.825Z" fill="#5A6FDE"/>
<path d="M3.888 75.776V52.88H43.776V158H18.144V75.776H3.888ZM93.5966 76.496C99.2606 76.496 104.205 77.648 108.429 79.952C112.749 82.256 116.061 85.28 118.365 89.024V77.648H142.989V157.856C142.989 165.248 141.501 171.92 138.525 177.872C135.645 183.92 131.181 188.72 125.133 192.272C119.181 195.824 111.741 197.6 102.813 197.6C90.9086 197.6 81.2606 194.768 73.8686 189.104C66.4766 183.536 62.2526 175.952 61.1966 166.352H85.5326C86.3006 169.424 88.1246 171.824 91.0046 173.552C93.8846 175.376 97.4366 176.288 101.661 176.288C106.749 176.288 110.781 174.8 113.757 171.824C116.829 168.944 118.365 164.288 118.365 157.856V146.48C115.965 150.224 112.653 153.296 108.429 155.696C104.205 158 99.2606 159.152 93.5966 159.152C86.9726 159.152 80.9726 157.472 75.5966 154.112C70.2206 150.656 65.9486 145.808 62.7806 139.568C59.7086 133.232 58.1726 125.936 58.1726 117.68C58.1726 109.424 59.7086 102.176 62.7806 95.936C65.9486 89.696 70.2206 84.896 75.5966 81.536C80.9726 78.176 86.9726 76.496 93.5966 76.496ZM118.365 117.824C118.365 111.68 116.637 106.832 113.181 103.28C109.821 99.728 105.693 97.952 100.797 97.952C95.9006 97.952 91.7246 99.728 88.2686 103.28C84.9086 106.736 83.2286 111.536 83.2286 117.68C83.2286 123.824 84.9086 128.72 88.2686 132.368C91.7246 135.92 95.9006 137.696 100.797 137.696C105.693 137.696 109.821 135.92 113.181 132.368C116.637 128.816 118.365 123.968 118.365 117.824ZM185.427 91.04C188.307 86.624 191.907 83.168 196.227 80.672C200.547 78.08 205.347 76.784 210.627 76.784V102.848H203.859C197.715 102.848 193.107 104.192 190.035 106.88C186.963 109.472 185.427 114.08 185.427 120.704V158H160.803V77.648H185.427V91.04ZM217.501 117.68C217.501 109.424 219.037 102.176 222.109 95.936C225.277 89.696 229.549 84.896 234.925 81.536C240.301 78.176 246.301 76.496 252.925 76.496C258.589 76.496 263.533 77.648 267.757 79.952C272.077 82.256 275.389 85.28 277.693 89.024V77.648H302.317V158H277.693V146.624C275.293 150.368 271.933 153.392 267.613 155.696C263.389 158 258.445 159.152 252.781 159.152C246.253 159.152 240.301 157.472 234.925 154.112C229.549 150.656 225.277 145.808 222.109 139.568C219.037 133.232 217.501 125.936 217.501 117.68ZM277.693 117.824C277.693 111.68 275.965 106.832 272.509 103.28C269.149 99.728 265.021 97.952 260.125 97.952C255.229 97.952 251.053 99.728 247.597 103.28C244.237 106.736 242.557 111.536 242.557 117.68C242.557 123.824 244.237 128.72 247.597 132.368C251.053 135.92 255.229 137.696 260.125 137.696C265.021 137.696 269.149 135.92 272.509 132.368C275.965 128.816 277.693 123.968 277.693 117.824ZM422.659 76.784C432.643 76.784 440.563 79.808 446.419 85.856C452.371 91.904 455.347 100.304 455.347 111.056V158H430.867V114.368C430.867 109.184 429.475 105.2 426.691 102.416C424.003 99.536 420.259 98.096 415.459 98.096C410.659 98.096 406.867 99.536 404.083 102.416C401.395 105.2 400.051 109.184 400.051 114.368V158H375.571V114.368C375.571 109.184 374.179 105.2 371.395 102.416C368.707 99.536 364.963 98.096 360.163 98.096C355.363 98.096 351.571 99.536 348.787 102.416C346.099 105.2 344.755 109.184 344.755 114.368V158H320.131V77.648H344.755V87.728C347.251 84.368 350.515 81.728 354.547 79.808C358.579 77.792 363.139 76.784 368.227 76.784C374.275 76.784 379.651 78.08 384.355 80.672C389.155 83.264 392.899 86.96 395.587 91.76C398.371 87.344 402.163 83.744 406.963 80.96C411.763 78.176 416.995 76.784 422.659 76.784Z" fill="#5A6FDE"/>
</svg>
