<svg width="1440" height="773" viewBox="0 0 1440 773" fill="none" xmlns="http://www.w3.org/2000/svg">
<path d="M660.984 563.722V560.86H665.97V574H662.766V563.722H660.984ZM672.198 563.812C672.906 563.812 673.524 563.956 674.052 564.244C674.592 564.532 675.006 564.91 675.294 565.378V563.956H678.372V573.982C678.372 574.906 678.186 575.74 677.814 576.484C677.454 577.24 676.896 577.84 676.14 578.284C675.396 578.728 674.466 578.95 673.35 578.95C671.862 578.95 670.656 578.596 669.732 577.888C668.808 577.192 668.28 576.244 668.148 575.044H671.19C671.286 575.428 671.514 575.728 671.874 575.944C672.234 576.172 672.678 576.286 673.206 576.286C673.842 576.286 674.346 576.1 674.718 575.728C675.102 575.368 675.294 574.786 675.294 573.982V572.56C674.994 573.028 674.58 573.412 674.052 573.712C673.524 574 672.906 574.144 672.198 574.144C671.37 574.144 670.62 573.934 669.948 573.514C669.276 573.082 668.742 572.476 668.346 571.696C667.962 570.904 667.77 569.992 667.77 568.96C667.77 567.928 667.962 567.022 668.346 566.242C668.742 565.462 669.276 564.862 669.948 564.442C670.62 564.022 671.37 563.812 672.198 563.812ZM675.294 568.978C675.294 568.21 675.078 567.604 674.646 567.16C674.226 566.716 673.71 566.494 673.098 566.494C672.486 566.494 671.964 566.716 671.532 567.16C671.112 567.592 670.902 568.192 670.902 568.96C670.902 569.728 671.112 570.34 671.532 570.796C671.964 571.24 672.486 571.462 673.098 571.462C673.71 571.462 674.226 571.24 674.646 570.796C675.078 570.352 675.294 569.746 675.294 568.978ZM683.676 565.63C684.036 565.078 684.486 564.646 685.026 564.334C685.566 564.01 686.166 563.848 686.826 563.848V567.106H685.98C685.212 567.106 684.636 567.274 684.252 567.61C683.868 567.934 683.676 568.51 683.676 569.338V574H680.598V563.956H683.676V565.63ZM687.686 568.96C687.686 567.928 687.878 567.022 688.262 566.242C688.658 565.462 689.192 564.862 689.864 564.442C690.536 564.022 691.286 563.812 692.114 563.812C692.822 563.812 693.44 563.956 693.968 564.244C694.508 564.532 694.922 564.91 695.21 565.378V563.956H698.288V574H695.21V572.578C694.91 573.046 694.49 573.424 693.95 573.712C693.422 574 692.804 574.144 692.096 574.144C691.28 574.144 690.536 573.934 689.864 573.514C689.192 573.082 688.658 572.476 688.262 571.696C687.878 570.904 687.686 569.992 687.686 568.96ZM695.21 568.978C695.21 568.21 694.994 567.604 694.562 567.16C694.142 566.716 693.626 566.494 693.014 566.494C692.402 566.494 691.88 566.716 691.448 567.16C691.028 567.592 690.818 568.192 690.818 568.96C690.818 569.728 691.028 570.34 691.448 570.796C691.88 571.24 692.402 571.462 693.014 571.462C693.626 571.462 694.142 571.24 694.562 570.796C694.994 570.352 695.21 569.746 695.21 568.978ZM713.33 563.848C714.578 563.848 715.568 564.226 716.3 564.982C717.044 565.738 717.416 566.788 717.416 568.132V574H714.356V568.546C714.356 567.898 714.182 567.4 713.834 567.052C713.498 566.692 713.03 566.512 712.43 566.512C711.83 566.512 711.356 566.692 711.008 567.052C710.672 567.4 710.504 567.898 710.504 568.546V574H707.444V568.546C707.444 567.898 707.27 567.4 706.922 567.052C706.586 566.692 706.118 566.512 705.518 566.512C704.918 566.512 704.444 566.692 704.096 567.052C703.76 567.4 703.592 567.898 703.592 568.546V574H700.514V563.956H703.592V565.216C703.904 564.796 704.312 564.466 704.816 564.226C705.32 563.974 705.89 563.848 706.526 563.848C707.282 563.848 707.954 564.01 708.542 564.334C709.142 564.658 709.61 565.12 709.946 565.72C710.294 565.168 710.768 564.718 711.368 564.37C711.968 564.022 712.622 563.848 713.33 563.848ZM729.468 560.248H727.092V562.66C727.092 565.882 725.724 569.086 722.826 570.328L724.248 572.29C726.228 571.354 727.578 569.572 728.316 567.358C729.054 569.392 730.332 571.03 732.24 571.894L733.59 569.968C730.782 568.762 729.468 565.738 729.468 562.66V560.248ZM734.4 558.952V575.584H736.776V558.952H734.4ZM749.5 566.548C746.89 565.702 745.756 563.74 745.702 561.832H748.942V559.942H739.978V561.832H743.272C743.218 563.884 742.048 565.954 739.348 566.836L740.59 568.69C742.498 568.06 743.794 566.782 744.532 565.18C745.252 566.638 746.494 567.808 748.294 568.384L749.5 566.548ZM741.58 571.588H750.274V575.566H752.65V569.698H741.58V571.588ZM754.846 562.966H752.65V558.97H750.274V568.96H752.65V564.928H754.846V562.966ZM760.947 570.22C759.831 570.22 759.003 569.464 759.003 568.204C759.003 566.944 759.831 566.17 760.947 566.17C762.063 566.17 762.873 566.944 762.873 568.186C762.873 569.464 762.063 570.22 760.947 570.22ZM760.947 564.244C758.535 564.244 756.735 565.882 756.735 568.186C756.735 570.526 758.535 572.164 760.947 572.164C763.341 572.164 765.123 570.526 765.123 568.186C765.123 565.882 763.341 564.244 760.947 564.244ZM762.117 559.258H759.741V561.418H756.069V563.308H765.717V561.418H762.117V559.258ZM771.549 565.45H769.173V558.97H766.797V575.548H769.173V567.412H771.549V565.45ZM773.635 560.68V562.57H779.161C778.819 566.242 776.983 568.834 772.753 570.868L773.995 572.74C779.881 569.896 781.591 565.756 781.591 560.68H773.635ZM784.129 558.952V575.53H786.523V558.952H784.129Z" fill="white"/>
<circle cx="184" cy="367" r="94.5" stroke="#61C779"/>
<path d="M278.5 393C278.5 436.272 236.281 471.5 184 471.5C131.719 471.5 89.5 436.272 89.5 393C89.5 349.728 131.719 314.5 184 314.5C236.281 314.5 278.5 349.728 278.5 393Z" stroke="#61C779"/>
<path d="M278.5 419.5C278.5 433.732 268.055 446.723 250.933 456.185C233.829 465.638 210.165 471.5 184 471.5C157.835 471.5 134.171 465.638 117.067 456.185C99.9448 446.723 89.5 433.732 89.5 419.5C89.5 405.268 99.9448 392.277 117.067 382.815C134.171 373.362 157.835 367.5 184 367.5C210.165 367.5 233.829 373.362 250.933 382.815C268.055 392.277 278.5 405.268 278.5 419.5Z" stroke="#61C779"/>
<path d="M278.5 442.5C278.5 446.339 275.994 450.089 271.239 453.58C266.494 457.063 259.596 460.221 251.027 462.882C233.895 468.202 210.198 471.5 184 471.5C157.802 471.5 134.105 468.202 116.973 462.882C108.404 460.221 101.506 457.063 96.7615 453.58C92.0063 450.089 89.5 446.339 89.5 442.5C89.5 438.661 92.0063 434.911 96.7615 431.42C101.506 427.937 108.404 424.779 116.973 422.118C134.105 416.798 157.802 413.5 184 413.5C210.198 413.5 233.895 416.798 251.027 422.118C259.596 424.779 266.494 427.937 271.239 431.42C275.994 434.911 278.5 438.661 278.5 442.5Z" stroke="#61C779"/>
<path d="M278.5 457C278.5 457.805 277.982 458.687 276.764 459.627C275.556 460.56 273.743 461.481 271.36 462.37C266.598 464.148 259.68 465.757 251.097 467.113C233.938 469.822 210.216 471.5 184 471.5C157.784 471.5 134.062 469.822 116.903 467.113C108.32 465.757 101.402 464.148 96.6404 462.37C94.2571 461.481 92.4438 460.56 91.2355 459.627C90.0175 458.687 89.5 457.805 89.5 457C89.5 456.195 90.0175 455.313 91.2355 454.373C92.4438 453.44 94.2571 452.519 96.6404 451.63C101.402 449.852 108.32 448.243 116.903 446.887C134.062 444.178 157.784 442.5 184 442.5C210.216 442.5 233.938 444.178 251.097 446.887C259.68 448.243 266.598 449.852 271.36 451.63C273.743 452.519 275.556 453.44 276.764 454.373C277.982 455.313 278.5 456.195 278.5 457Z" stroke="#61C779"/>
<circle cx="430" cy="154" r="17.5" stroke="#F0F7D2"/>
<circle cx="430" cy="172" r="18" fill="#F0F7D2"/>
<circle cx="1056" cy="257" r="5" fill="#61C779"/>
<circle cx="1174" cy="376" r="5" fill="#61C779"/>
<circle cx="1293.5" cy="491.5" r="33.5" transform="rotate(-90 1293.5 491.5)" fill="#DCEDFA"/>
<circle cx="1256.5" cy="491.5" r="33" transform="rotate(-90 1256.5 491.5)" stroke="#78E09E"/>
<path d="M1061 257H1174V371" stroke="#61C779"/>
<mask id="mask0" mask-type="alpha" maskUnits="userSpaceOnUse" x="760" y="638" width="456" height="135">
<rect x="760" y="638" width="456" height="135" fill="#C4C4C4"/>
</mask>
<g mask="url(#mask0)">
<circle cx="895" cy="773" r="94.5" transform="rotate(-90 895 773)" stroke="#61C779"/>
<path d="M921 678.5C964.272 678.5 999.5 720.719 999.5 773C999.5 825.281 964.272 867.5 921 867.5C877.728 867.5 842.5 825.281 842.5 773C842.5 720.719 877.728 678.5 921 678.5Z" stroke="#61C779"/>
<path d="M947.5 678.5C961.732 678.5 974.723 688.945 984.185 706.067C993.638 723.171 999.5 746.835 999.5 773C999.5 799.165 993.638 822.829 984.185 839.933C974.723 857.055 961.732 867.5 947.5 867.5C933.268 867.5 920.277 857.055 910.815 839.933C901.362 822.829 895.5 799.165 895.5 773C895.5 746.835 901.362 723.171 910.815 706.067C920.277 688.945 933.268 678.5 947.5 678.5Z" stroke="#61C779"/>
<path d="M970.5 678.5C974.339 678.5 978.089 681.006 981.58 685.761C985.063 690.506 988.221 697.404 990.882 705.973C996.202 723.105 999.5 746.802 999.5 773C999.5 799.198 996.202 822.895 990.882 840.027C988.221 848.596 985.063 855.494 981.58 860.239C978.089 864.994 974.339 867.5 970.5 867.5C966.661 867.5 962.911 864.994 959.42 860.239C955.937 855.494 952.779 848.596 950.118 840.027C944.798 822.895 941.5 799.198 941.5 773C941.5 746.802 944.798 723.105 950.118 705.973C952.779 697.404 955.937 690.506 959.42 685.761C962.911 681.006 966.661 678.5 970.5 678.5Z" stroke="#61C779"/>
<path d="M985 678.5C985.805 678.5 986.687 679.018 987.627 680.236C988.56 681.444 989.481 683.257 990.37 685.64C992.148 690.402 993.757 697.32 995.113 705.903C997.822 723.062 999.5 746.784 999.5 773C999.5 799.216 997.822 822.938 995.113 840.097C993.757 848.68 992.148 855.598 990.37 860.36C989.481 862.743 988.56 864.556 987.627 865.764C986.687 866.983 985.805 867.5 985 867.5C984.195 867.5 983.313 866.983 982.373 865.764C981.44 864.556 980.519 862.743 979.63 860.36C977.852 855.598 976.243 848.68 974.887 840.097C972.178 822.938 970.5 799.216 970.5 773C970.5 746.784 972.178 723.062 974.887 705.903C976.243 697.32 977.852 690.402 979.63 685.64C980.519 683.257 981.44 681.444 982.373 680.236C983.313 679.018 984.195 678.5 985 678.5Z" stroke="#61C779"/>
<circle cx="1090" cy="773" r="94.5" transform="rotate(90 1090 773)" stroke="#61C779"/>
<path d="M1064 867.5C1020.73 867.5 985.5 825.281 985.5 773C985.5 720.719 1020.73 678.5 1064 678.5C1107.27 678.5 1142.5 720.719 1142.5 773C1142.5 825.281 1107.27 867.5 1064 867.5Z" stroke="#61C779"/>
<path d="M1037.5 867.5C1023.27 867.5 1010.28 857.055 1000.81 839.933C991.362 822.829 985.5 799.165 985.5 773C985.5 746.835 991.362 723.171 1000.81 706.067C1010.28 688.945 1023.27 678.5 1037.5 678.5C1051.73 678.5 1064.72 688.945 1074.19 706.067C1083.64 723.171 1089.5 746.835 1089.5 773C1089.5 799.165 1083.64 822.829 1074.19 839.933C1064.72 857.055 1051.73 867.5 1037.5 867.5Z" stroke="#61C779"/>
<path d="M1014.5 867.5C1010.66 867.5 1006.91 864.994 1003.42 860.239C999.937 855.494 996.779 848.596 994.118 840.027C988.798 822.895 985.5 799.198 985.5 773C985.5 746.802 988.798 723.105 994.118 705.973C996.779 697.404 999.937 690.506 1003.42 685.761C1006.91 681.006 1010.66 678.5 1014.5 678.5C1018.34 678.5 1022.09 681.006 1025.58 685.761C1029.06 690.506 1032.22 697.404 1034.88 705.973C1040.2 723.105 1043.5 746.802 1043.5 773C1043.5 799.198 1040.2 822.895 1034.88 840.027C1032.22 848.596 1029.06 855.494 1025.58 860.239C1022.09 864.994 1018.34 867.5 1014.5 867.5Z" stroke="#61C779"/>
<path d="M1000 867.5C999.195 867.5 998.313 866.983 997.373 865.765C996.44 864.556 995.519 862.743 994.63 860.36C992.852 855.599 991.243 848.68 989.887 840.097C987.178 822.938 985.5 799.216 985.5 773C985.5 746.784 987.178 723.062 989.887 705.903C991.243 697.32 992.852 690.402 994.63 685.64C995.519 683.257 996.44 681.444 997.373 680.236C998.313 679.018 999.195 678.5 1000 678.5C1000.81 678.5 1001.69 679.018 1002.63 680.236C1003.56 681.444 1004.48 683.257 1005.37 685.64C1007.15 690.402 1008.76 697.32 1010.11 705.903C1012.82 723.062 1014.5 746.784 1014.5 773C1014.5 799.216 1012.82 822.938 1010.11 840.097C1008.76 848.68 1007.15 855.599 1005.37 860.36C1004.48 862.743 1003.56 864.556 1002.63 865.765C1001.69 866.983 1000.81 867.5 1000 867.5Z" stroke="#61C779"/>
</g>
</svg>
