<svg width="565" height="858" viewBox="0 0 565 858" fill="none" xmlns="http://www.w3.org/2000/svg">
<g clip-path="url(#clip0)">
<path d="M564.9 421.53L105.09 497.87V661.45L564.9 653.96V421.53Z" fill="url(#paint0_linear)"/>
<path d="M110.38 499.16L554.86 425.08V643.79L110.38 657.9V499.16Z" fill="#67C2A9"/>
<path d="M560.02 209.89L240.91 300.73V395.09L560.02 326.66V209.89Z" fill="url(#paint1_linear)"/>
<path d="M551.33 213.42L247.96 301.61V389.8L551.33 319.25V213.42Z" fill="white"/>
<path d="M297.34 333.2C297.34 346.31 290.99 358.49 283.23 360.39C275.47 362.29 269.39 353.39 269.39 340.5C269.39 327.61 275.55 315.5 283.23 313.38C290.91 311.26 297.34 320.09 297.34 333.2Z" stroke="#DBDBDB" stroke-width="2" stroke-miterlimit="10"/>
<path d="M516.06 273.39L323.36 324.08V313.26L516.06 261.14V273.39Z" fill="#DBDBDB"/>
<path d="M516.06 298.08L323.36 348.77V337.95L516.06 285.84V298.08Z" fill="#DBDBDB"/>
<path d="M198.57 570.68C198.57 545.83 187.4 527.21 173.88 529.06C160.63 530.88 150.08 551.74 150.08 575.69C150.08 599.64 160.63 618.32 173.88 617.4C187.45 616.46 198.57 595.54 198.57 570.68Z" fill="white"/>
<path d="M498.42 527.38L232.62 556.85V540.34L498.42 507.68V527.38Z" fill="url(#paint2_linear)"/>
<path d="M498.42 569.71L232.62 599.18V582.67L498.42 550.01V569.71Z" fill="url(#paint3_linear)"/>
<path d="M553.16 736.64L239.14 732.95V828.63L556.69 858L553.16 736.64Z" fill="url(#paint4_linear)"/>
<path d="M551.33 742.56L247.96 739.03V823.7L551.33 848.39V742.56Z" fill="white"/>
<path d="M300.87 785.64C300.87 798.72 294.52 808.88 286.76 808.34C279 807.8 272.93 797 272.93 784.16C272.93 771.32 279.09 761.16 286.77 761.45C294.45 761.74 300.87 772.56 300.87 785.64Z" stroke="#DBDBDB" stroke-width="2" stroke-miterlimit="10"/>
<path d="M516.06 788.42L329.63 779.49V768.45L516.06 775.98V788.42Z" fill="#DBDBDB"/>
<path d="M516.06 813.11L329.63 804.18V793.14L516.06 800.67V813.11Z" fill="#DBDBDB"/>
<path d="M560.02 0L242.67 127.17V222.24L560.02 116.41V0Z" fill="url(#paint5_linear)"/>
<path d="M554.86 5.29004L247.96 132.28V213.42L554.86 111.12V5.29004Z" fill="white"/>
<path d="M311.45 148C311.45 161 305.1 173.86 297.34 176.73C289.58 179.6 283.5 171.53 283.5 158.8C283.5 146.07 289.66 133.27 297.34 130.17C305.02 127.07 311.45 135 311.45 148Z" stroke="#DBDBDB" stroke-width="2" stroke-miterlimit="10"/>
<path d="M523.11 61.73L336.64 134.31V121.67L523.11 47.5V61.73Z" fill="#DBDBDB"/>
<path d="M523.11 93.48L336.64 166.05V153.42L523.11 79.25V93.48Z" fill="#DBDBDB"/>
<path d="M121.95 822.65L112.5 816.21L97.36 758.86L100.42 755.55C100.42 755.55 100.42 737.05 96.11 724.84C98.78 723.15 100.45 722 100.45 722C91.23 713.61 91.23 682.86 91.23 682.86C91.23 682.86 87.32 659.18 79.51 637.25L94.3 640.92L115.82 593.39V582.19L125.04 576.6C125.04 576.6 112.74 559.82 100.44 576.6C100.44 576.6 103.51 587.78 100.44 593.38C97.37 598.98 88.14 618.54 88.14 618.54H80.31L81.99 610.15H65.92C65.14 609.15 64.35 608.22 63.54 607.35L75.84 582.19L70.08 578.26L91.22 554.26L94.29 503.93C106.51 500.23 109.29 489.16 109.77 482.11C109.99 478.89 106.65 476.44 103.21 477.24C76.67 483.43 82 495.54 82 495.54L72.76 543L60.05 561.21C58.51 552.88 52.49 545.96 44.3 542.54L51.24 534.65C51.24 534.65 35.55 530.84 20.64 536C-6.90999 545.52 -6.84999 582 20.64 591.57C24.5202 592.997 28.6527 593.61 32.78 593.37V590.57C33.17 590.57 33.55 590.57 33.93 590.52C33.46 593.12 33.02 596.06 32.79 598.96C26.64 598.96 26.64 629.72 35.86 635.31L32.79 666.07V682.85C38.94 696.85 51.24 696.85 51.24 696.85L60.45 736C63.37 737.33 67.17 737.23 71.25 736.31L72.74 747.18C72.74 747.18 45.07 766.75 45.07 794.71L44.07 796.54L42 794.71L23.55 808.71L48.15 836.71H72.75C78.9 822.71 54.3 819.93 54.3 819.93L54.18 805.56L79.11 778.64C83.34 789.89 90.88 808.59 97.11 816.64L94.3 817.15V839.52H146.55C161.92 819.85 121.95 822.65 121.95 822.65Z" fill="url(#paint6_linear)"/>
<path d="M40.2599 584.43C40.2599 584.43 34.1599 610.05 40.2599 613.71L58.5599 602.71L46.3599 579.53L40.2599 584.43Z" fill="#F6B9AD"/>
<path d="M107.74 810.56L91.58 743.22L75.45 764.76C75.45 764.76 88.9199 807.86 96.9999 813.24L107.74 810.56Z" fill="#B98B82"/>
<path d="M118.52 578.91C118.52 578.91 107.75 562.75 96.9699 578.91C96.9699 578.91 99.6599 589.68 96.9699 595.07C94.2799 600.46 86.2 619.31 86.2 619.31H61.95V632.78L91.58 640.86L110.45 595.07V584.29L118.52 578.91Z" fill="#F6B9AD"/>
<path d="M80.81 611.23L75.42 640.86L53.87 635.47V611.23H80.81Z" fill="#CFCCA7"/>
<path d="M37.71 592.37C51.0974 592.37 61.95 581.518 61.95 568.13C61.95 554.743 51.0974 543.89 37.71 543.89C24.3226 543.89 13.47 554.743 13.47 568.13C13.47 581.518 24.3226 592.37 37.71 592.37Z" fill="#F6B9AD"/>
<path d="M32.3201 565.44L53.8701 538.5C53.8701 538.5 40.12 534.83 27.06 539.8C2.93004 548.97 2.97004 584.07 27.06 593.33C30.4272 594.703 34.0609 595.298 37.69 595.07V578.91H29.6101L32.3201 565.44Z" fill="#3D213C"/>
<path d="M91.58 508.87L88.89 557.35L67.34 584.29L53.87 576.21L72.73 546.58L80.81 500.79C80.81 500.79 76.14 489.12 99.4 483.16C100.1 482.976 100.833 482.96 101.54 483.114C102.247 483.267 102.907 483.585 103.468 484.042C104.029 484.5 104.473 485.083 104.765 485.745C105.058 486.406 105.19 487.128 105.15 487.85C104.72 494.64 102.29 505.3 91.58 508.87Z" fill="#F6B9AD"/>
<path d="M70.03 721.67L72.72 743.22C72.72 743.22 48.45 762.07 48.45 789L45.76 794.39L53.84 802.47L96.94 751.29C96.94 751.29 96.94 721.66 88.86 713.58L70.03 721.67Z" fill="#F6B9AD"/>
<path d="M56.45 799.41L56.56 813.25C56.56 813.25 78.11 815.94 72.72 829.41H51.18L29.63 802.47L45.79 789L56.45 799.41Z" fill="#67C2A9"/>
<path d="M105.05 807.86L115.82 815.94C115.82 815.94 150.82 813.25 137.37 832.1H91.58V810.56L105.05 807.86Z" fill="#67C2A9"/>
<path d="M96.97 719C96.97 719 72.73 737.86 61.97 732.47L53.89 694.76C53.89 694.76 43.12 694.76 37.73 681.29V665.1L88.91 681.26C88.91 681.26 88.89 710.89 96.97 719Z" fill="#67C2A9"/>
<path d="M75.45 584.29L53.9 568.13C53.9 568.13 43.13 600.45 37.74 600.45C32.35 600.45 32.35 630.08 40.43 635.45L37.74 665.08L88.92 681.24C88.92 681.24 80.84 627.37 64.68 608.51L75.45 584.29Z" fill="#F7F2C9"/>
<path d="M284.45 149.84L290.61 148.9L296.77 155.05L303.87 141.79H311.45L296.77 160.26L284.45 149.84Z" fill="#47E6B1"/>
<path d="M152.45 572.35L162.26 570.84L172.07 580.65L183.38 559.53H195.45L172.07 588.95L152.45 572.35Z" fill="#67C2A9"/>
<path opacity="0.2" d="M152.45 572.35L162.26 570.84L172.07 580.65L183.38 559.53H195.45L172.07 588.95L152.45 572.35Z" fill="black"/>
</g>
<defs>
<linearGradient id="paint0_linear" x1="335" y1="661.45" x2="335" y2="421.53" gradientUnits="userSpaceOnUse">
<stop stop-color="#808080" stop-opacity="0.25"/>
<stop offset="0.54" stop-color="#808080" stop-opacity="0.12"/>
<stop offset="1" stop-color="#808080" stop-opacity="0.1"/>
</linearGradient>
<linearGradient id="paint1_linear" x1="128032" y1="73380.6" x2="128032" y2="39081.5" gradientUnits="userSpaceOnUse">
<stop stop-color="#808080" stop-opacity="0.25"/>
<stop offset="0.54" stop-color="#808080" stop-opacity="0.12"/>
<stop offset="1" stop-color="#808080" stop-opacity="0.1"/>
</linearGradient>
<linearGradient id="paint2_linear" x1="232.62" y1="532.26" x2="498.42" y2="532.26" gradientUnits="userSpaceOnUse">
<stop stop-color="#DADADA"/>
<stop offset="1" stop-color="white"/>
</linearGradient>
<linearGradient id="paint3_linear" x1="62063" y1="28802.6" x2="132713" y2="28802.6" gradientUnits="userSpaceOnUse">
<stop stop-color="#DADADA"/>
<stop offset="1" stop-color="white"/>
</linearGradient>
<linearGradient id="paint4_linear" x1="126599" y1="108026" x2="126599" y2="92388.3" gradientUnits="userSpaceOnUse">
<stop stop-color="#808080" stop-opacity="0.25"/>
<stop offset="0.54" stop-color="#808080" stop-opacity="0.12"/>
<stop offset="1" stop-color="#808080" stop-opacity="0.1"/>
</linearGradient>
<linearGradient id="paint5_linear" x1="127611" y1="49390.6" x2="127611" y2="0" gradientUnits="userSpaceOnUse">
<stop stop-color="#808080" stop-opacity="0.25"/>
<stop offset="0.54" stop-color="#808080" stop-opacity="0.12"/>
<stop offset="1" stop-color="#808080" stop-opacity="0.1"/>
</linearGradient>
<linearGradient id="paint6_linear" x1="58913.7" y1="312321" x2="58913.7" y2="180990" gradientUnits="userSpaceOnUse">
<stop stop-color="#808080" stop-opacity="0.25"/>
<stop offset="0.54" stop-color="#808080" stop-opacity="0.12"/>
<stop offset="1" stop-color="#808080" stop-opacity="0.1"/>
</linearGradient>
<clipPath id="clip0">
<rect width="564.9" height="858" fill="white"/>
</clipPath>
</defs>
</svg>
