<svg width="151" height="363" viewBox="0 0 151 363" fill="none" xmlns="http://www.w3.org/2000/svg">
<path d="M121.95 345.65L112.5 339.21L97.36 281.86L100.42 278.55C100.42 278.55 100.42 260.05 96.11 247.84C98.78 246.15 100.45 245 100.45 245C91.23 236.61 91.23 205.86 91.23 205.86C91.23 205.86 87.32 182.18 79.51 160.25L94.3 163.92L115.82 116.39V105.19L125.04 99.6001C125.04 99.6001 112.74 82.8201 100.44 99.6001C100.44 99.6001 103.51 110.78 100.44 116.38C97.37 121.98 88.14 141.54 88.14 141.54H80.31L81.99 133.15H65.92C65.14 132.15 64.35 131.22 63.54 130.35L75.84 105.19L70.08 101.26L91.22 77.2601L94.29 26.9301C106.51 23.2301 109.29 12.1601 109.77 5.11007C109.99 1.89007 106.65 -0.559921 103.21 0.240079C76.67 6.43008 82 18.5401 82 18.5401L72.76 66.0001L60.05 84.2101C58.51 75.8801 52.49 68.9601 44.3 65.5401L51.24 57.6501C51.24 57.6501 35.55 53.8401 20.64 59.0001C-6.90999 68.5201 -6.84999 105 20.64 114.57C24.5202 115.997 28.6527 116.61 32.78 116.37V113.57C33.17 113.57 33.55 113.57 33.93 113.52C33.46 116.12 33.02 119.06 32.79 121.96C26.64 121.96 26.64 152.72 35.86 158.31L32.79 189.07V205.85C38.94 219.85 51.24 219.85 51.24 219.85L60.45 259C63.37 260.33 67.17 260.23 71.25 259.31L72.74 270.18C72.74 270.18 45.07 289.75 45.07 317.71L44.07 319.54L42 317.71L23.55 331.71L48.15 359.71H72.75C78.9 345.71 54.3 342.93 54.3 342.93L54.18 328.56L79.11 301.64C83.34 312.89 90.88 331.59 97.11 339.64L94.3 340.15V362.52H146.55C161.92 342.85 121.95 345.65 121.95 345.65Z" fill="url(#paint0_linear)"/>
<defs>
<linearGradient id="paint0_linear" x1="58913.7" y1="311844" x2="58913.7" y2="180513" gradientUnits="userSpaceOnUse">
<stop stop-color="#808080" stop-opacity="0.25"/>
<stop offset="0.54" stop-color="#808080" stop-opacity="0.12"/>
<stop offset="1" stop-color="#808080" stop-opacity="0.1"/>
</linearGradient>
</defs>
</svg>
