<svg xmlns="http://www.w3.org/2000/svg" viewBox="0 0 63.55 63.55"><defs><style>.cls-1{fill:#e84537;}.cls-2{fill:#fff;}</style></defs><g id="Layer_2" data-name="Layer 2"><circle class="cls-1" cx="31.77" cy="31.77" r="31.77"/><path class="cls-2" d="M35.08,30.24H31.61s0,0,0,0H25.7V34h5.36a2.52,2.52,0,0,1-.64,1.63,6.13,6.13,0,1,1-.78-8.56l2.62-2.75A9.92,9.92,0,1,0,30.9,40.21a9.57,9.57,0,0,0,4.3-8.44,9.67,9.67,0,0,0-.12-1.53"/><polygon class="cls-2" points="47.76 30 43.77 30 43.77 26.01 41.08 26.01 41.08 30 37.09 30 37.09 32.69 41.08 32.69 41.08 36.68 43.77 36.68 43.77 32.69 47.76 32.69 47.76 30"/></g></svg>