<svg xmlns="http://www.w3.org/2000/svg" viewBox="0 0 37.9 37.9"><defs><style>.cls-1{fill:#fff;}</style></defs><g id="Layer_2" data-name="Layer 2"><g id="Layer_1-2" data-name="Layer 1"><path class="cls-1" d="M27,0h-16A10.94,10.94,0,0,0,0,10.94V27A10.94,10.94,0,0,0,10.94,37.9H27A10.94,10.94,0,0,0,37.9,27v-16A10.94,10.94,0,0,0,27,0m7.45,27.24a7.27,7.27,0,0,1-7.26,7.27H10.75a7.27,7.27,0,0,1-7.26-7.27V10.85a7.26,7.26,0,0,1,7.26-7.27h16.4a7.26,7.26,0,0,1,7.26,7.27Z"/><path class="cls-1" d="M19,9.21A9.84,9.84,0,1,0,28.79,19,9.83,9.83,0,0,0,19,9.21m0,16.21A6.38,6.38,0,1,1,25.32,19,6.38,6.38,0,0,1,19,25.42"/><path class="cls-1" d="M29.11,6.54A2.3,2.3,0,1,0,31.4,8.83a2.3,2.3,0,0,0-2.29-2.29"/></g></g></svg>