<svg xmlns="http://www.w3.org/2000/svg" viewBox="0 0 63.55 63.55"><defs><style>.cls-1{fill:#ffe600;}.cls-2{fill:#392020;}</style></defs><g id="Layer_2" data-name="Layer 2"><circle class="cls-1" cx="31.77" cy="31.77" r="31.77"/><path class="cls-2" d="M31.77,18.35c-9.22,0-16.7,5.9-16.7,13.19,0,4.69,3.1,8.79,7.75,11.14l-1.57,5.88a.49.49,0,0,0,.12.5.46.46,0,0,0,.63,0l6.77-4.57a21.18,21.18,0,0,0,3,.22c9.23,0,16.71-5.91,16.71-13.2S41,18.35,31.77,18.35"/><path class="cls-1" d="M20.93,29.45H19.11a1.2,1.2,0,0,1-.64-.17.71.71,0,0,1-.33-.49c0-.05,0-.12,0-.19a.72.72,0,0,1,.28-.61,1.13,1.13,0,0,1,.72-.23h5.56a1.2,1.2,0,0,1,.64.17.78.78,0,0,1,.34.49,1.09,1.09,0,0,1,0,.18.74.74,0,0,1-.28.63,1.08,1.08,0,0,1-.71.22H22.85v6.27a1,1,0,0,1-.26.72.93.93,0,0,1-.71.27,1,1,0,0,1-.61-.19A.89.89,0,0,1,21,36a.69.69,0,0,1,0-.25Z"/><path class="cls-1" d="M26.13,28.22a.83.83,0,0,1,.35-.47,1.05,1.05,0,0,1,.59-.14h.46a1.22,1.22,0,0,1,.63.15,1,1,0,0,1,.39.58l2.33,6.73a4.62,4.62,0,0,1,.15.54c0,.09,0,.17,0,.23a.91.91,0,0,1-.27.62.89.89,0,0,1-.64.25.82.82,0,0,1-.87-.54L28.8,34.7H25.7l-.5,1.47a.8.8,0,0,1-.86.54.88.88,0,0,1-.57-.17.82.82,0,0,1-.29-.5.65.65,0,0,1,0-.2,1,1,0,0,1,.05-.36c0-.13.08-.27.13-.41Zm1.16,1.56h0l-1.14,3.53h2.25Z"/><path class="cls-1" d="M31.37,28.6a1,1,0,0,1,.26-.72A1.05,1.05,0,0,1,33,27.81a.88.88,0,0,1,.32.54,1.06,1.06,0,0,1,0,.25v6.27H36.5a1.21,1.21,0,0,1,.65.17.77.77,0,0,1,.33.49,1.11,1.11,0,0,1,0,.19.75.75,0,0,1-.28.62,1.19,1.19,0,0,1-.72.22h-4a1.2,1.2,0,0,1-.72-.19.88.88,0,0,1-.37-.59c0-.12,0-.25,0-.39Z"/><path class="cls-1" d="M37.7,28.6a1,1,0,0,1,.26-.72,1.05,1.05,0,0,1,1.32-.07.84.84,0,0,1,.32.54.71.71,0,0,1,0,.25v2.92l3-3.48a2.58,2.58,0,0,1,.36-.33.74.74,0,0,1,.4-.1,1,1,0,0,1,.58.17.76.76,0,0,1,.32.47.54.54,0,0,1,0,.08.19.19,0,0,0,0,.08.75.75,0,0,1-.09.37,2.79,2.79,0,0,1-.23.32l-2,2.15L44.37,35l.07.11a2.16,2.16,0,0,1,.28.56.35.35,0,0,1,0,.06v.06a.86.86,0,0,1-.29.74,1.08,1.08,0,0,1-.69.22,1,1,0,0,1-.48-.1,1.13,1.13,0,0,1-.38-.42l-2.22-3.57-1.05,1.1v2a1,1,0,0,1-.27.72.93.93,0,0,1-.7.27,1,1,0,0,1-.62-.19.89.89,0,0,1-.32-.55,1,1,0,0,1,0-.25Z"/></g></svg>