<svg xmlns="http://www.w3.org/2000/svg" viewBox="0 0 42.14 29.88"><defs><style>.cls-1{fill:#fff;}</style></defs><g id="Layer_2" data-name="Layer 2"><g id="Layer_1-2" data-name="Layer 1"><path class="cls-1" d="M41.5,5.44C40.7,2.22,39.19,1,36.42.54,34.82.3,27.16,0,21.07,0S7.32.3,5.72.54C3,1,1.44,2.23.64,5.44A81,81,0,0,0,0,14.69v.5a81,81,0,0,0,.64,9.25c.8,3.22,2.31,4.46,5.08,4.9,1.6.24,9.27.54,15.36.54h0c6.09,0,13.76-.3,15.36-.54,2.77-.44,4.28-1.68,5.08-4.9a81,81,0,0,0,.64-9.25v-.5A81,81,0,0,0,41.5,5.44ZM16,20.34V9.54l10.1,5.27Z"/></g></g></svg>